<?xml version="1.0" encoding="utf-8"?>
<!-- Generator: Adobe Illustrator 16.0.0, SVG Export Plug-In . SVG Version: 6.00 Build 0)  -->
<!DOCTYPE svg PUBLIC "-//W3C//DTD SVG 1.1//EN" "http://www.w3.org/Graphics/SVG/1.1/DTD/svg11.dtd">
<svg version="1.1" id="Layer_1" xmlns="http://www.w3.org/2000/svg" xmlns:xlink="http://www.w3.org/1999/xlink" x="0px" y="0px"
	 width="64px" height="64px" viewBox="0 0 64 64" enable-background="new 0 0 64 64" xml:space="preserve">
<g id="Layer_1_1_" display="none">
	
		<image display="inline" overflow="visible" enable-background="new    " width="133" height="133" xlink:href="CAA76F8.jpeg"  transform="matrix(0.4386 0 0 0.4386 2.395 3.334)">
	</image>
</g>
<g id="Layer_2" display="none">
	<polygon display="inline" fill="none" stroke="#000000" stroke-miterlimit="10" points="1.563,19.924 0.344,22.409 -1.563,18.909 
		-3.469,22.409 -4.688,19.924 -6.328,22.752 3.203,22.752 	"/>
</g>
<g id="Layer_4">
	<rect x="21.05" y="18.731" width="20.272" height="26.867"/>
	<rect x="19.138" y="20.929" width="25.928" height="22.182"/>
</g>
<g id="Layer_3">
	<path fill="#666666" stroke="#666666" stroke-miterlimit="10" d="M47.307,33.256l2.316-1.262l-2.316-1.262v-1.023l1.357-0.667
		l-1.357-0.787v-5.284l-6.643-6.292h-4.938l-0.774-1.335l-0.655,1.335H33.25l-1.249-2.294l-1.251,2.294h-1.045l-0.656-1.335
		l-0.775,1.335h-5.233l-6.363,6.503v5.083l-1.342,0.778l1.342,0.659v1.039l-2.301,1.254l2.301,1.253v1.038l-1.342,0.657l1.342,0.777
		v5.082l6.363,6.504h5.226l0.782,1.351l0.662-1.351h1.031L32,49.616l1.255-2.31h1.032l0.662,1.351l0.783-1.351h4.93l6.643-6.293
		v-5.279l1.357-0.791l-1.357-0.664v-1.023H47.307z M44.977,31.994v7.611l-5.605,5.313H24.499l-5.371-5.488v-7.435v-7.437
		l5.371-5.487H39.37l5.604,5.312v7.611H44.977z"/>
</g>
</svg>
