<?xml version="1.0" encoding="utf-8"?>
<!-- Generator: Adobe Illustrator 16.0.0, SVG Export Plug-In . SVG Version: 6.00 Build 0)  -->
<!DOCTYPE svg PUBLIC "-//W3C//DTD SVG 1.1//EN" "http://www.w3.org/Graphics/SVG/1.1/DTD/svg11.dtd">
<svg version="1.1" id="Layer_1" xmlns="http://www.w3.org/2000/svg" xmlns:xlink="http://www.w3.org/1999/xlink" x="0px" y="0px"
	 width="64px" height="64px" viewBox="0 0 64 64" enable-background="new 0 0 64 64" xml:space="preserve">
<g id="Layer_3">
	<ellipse cx="31.63" cy="31.915" rx="17.119" ry="16.474"/>
</g>
<g id="Layer_2">
	<g>
		<g>
			<path fill="#666666" stroke="#666666" stroke-miterlimit="10" d="M18.209,45.572L18.209,45.572L18.209,45.572z"/>
			<path fill="#666666" stroke="#666666" stroke-miterlimit="10" d="M17.816,42.981l0.394,2.591l2.582,0.43l0.228,4.733l3.128-3.081
				c4.839,2.424,10.567,2.466,15.44,0.118l3.099,3.143l0.302-4.726l2.589-0.393l0.433-2.582l4.73-0.227l-3.097-3.146
				c2.424-4.837,2.471-10.565,0.125-15.439l3.142-3.093l-4.729-0.303l-0.392-2.588l-2.58-0.433l-0.227-4.732l-3.14,3.092
				c-4.841-2.431-10.575-2.477-15.454-0.126l-3.087-3.135l-0.301,4.727l-2.589,0.394l-0.431,2.581l-4.734,0.229l3.086,3.135
				c-2.427,4.841-2.471,10.577-0.118,15.454l-3.125,3.075L17.816,42.981z M21.988,21.839c5.61-5.521,14.635-5.449,20.156,0.16
				c5.522,5.61,5.451,14.632-0.159,20.154c-5.608,5.521-14.632,5.45-20.152-0.16C16.31,36.384,16.379,27.362,21.988,21.839z"/>
			<polygon fill="#666666" stroke="#666666" stroke-miterlimit="10" points="18.412,18.205 18.412,18.205 18.413,18.205 			"/>
			<path fill="#666666" stroke="#666666" stroke-miterlimit="10" d="M45.574,45.799L45.574,45.799L45.574,45.799z"/>
			<polygon fill="#666666" stroke="#666666" stroke-miterlimit="10" points="45.789,18.421 45.789,18.421 45.792,18.419 			"/>
		</g>
	</g>
</g>
</svg>
