<?xml version="1.0" encoding="utf-8"?>
<!-- Generator: Adobe Illustrator 16.0.0, SVG Export Plug-In . SVG Version: 6.00 Build 0)  -->
<!DOCTYPE svg PUBLIC "-//W3C//DTD SVG 1.1//EN" "http://www.w3.org/Graphics/SVG/1.1/DTD/svg11.dtd">
<svg version="1.1" id="Layer_1" xmlns="http://www.w3.org/2000/svg" xmlns:xlink="http://www.w3.org/1999/xlink" x="0px" y="0px"
	 width="64px" height="64px" viewBox="0 0 64 64" enable-background="new 0 0 64 64" xml:space="preserve">
<g id="Layer_4" display="none">
	<rect display="inline" width="64" height="64"/>
</g>
<g id="Layer_1_1_" display="none">
	
		<image display="inline" overflow="visible" enable-background="new    " width="107" height="100" xlink:href="77404138.jpeg"  transform="matrix(0.4614 -0.4614 0.4614 0.4614 -16.9771 33.6758)">
	</image>
</g>
<g id="Layer_3">
	<ellipse cx="31.443" cy="31.881" rx="21.493" ry="20.684"/>
</g>
<g id="Layer_2">
	<g>
		<g>
			<path fill="#333333" stroke="#333333" stroke-miterlimit="10" d="M14.592,49.027L14.592,49.027L14.592,49.027z"/>
			<path fill="#333333" stroke="#333333" stroke-miterlimit="10" d="M14.098,45.775l0.494,3.252l3.241,0.541l0.286,5.942
				l3.928-3.868c6.076,3.043,13.268,3.096,19.387,0.148l3.891,3.945l0.376-5.934l3.252-0.492l0.543-3.242l5.94-0.284l-3.889-3.949
				c3.044-6.073,3.102-13.266,0.157-19.386l3.944-3.883l-5.937-0.38l-0.492-3.25l-3.239-0.543l-0.285-5.942l-3.941,3.882
				c-6.077-3.052-13.278-3.11-19.403-0.158l-3.876-3.937l-0.378,5.935l-3.251,0.493l-0.541,3.241l-5.944,0.287l3.875,3.936
				c-3.048,6.078-3.102,13.279-0.148,19.403l-3.923,3.861L14.098,45.775z M19.336,19.23c7.044-6.932,18.374-6.842,25.307,0.2
				c6.934,7.044,6.846,18.371-0.199,25.306c-7.043,6.932-18.371,6.842-25.302-0.201C12.207,37.492,12.294,26.164,19.336,19.23z"/>
			<polygon fill="#333333" stroke="#333333" stroke-miterlimit="10" points="14.846,14.667 14.846,14.667 14.847,14.666 			"/>
			<path fill="#333333" stroke="#333333" stroke-miterlimit="10" d="M48.951,49.313L48.951,49.313L48.951,49.313z"/>
			<polygon fill="#333333" stroke="#333333" stroke-miterlimit="10" points="49.221,14.938 49.221,14.938 49.223,14.936 			"/>
		</g>
	</g>
</g>
</svg>
