<?xml version="1.0" encoding="utf-8"?>
<!-- Generator: Adobe Illustrator 16.0.0, SVG Export Plug-In . SVG Version: 6.00 Build 0)  -->
<!DOCTYPE svg PUBLIC "-//W3C//DTD SVG 1.1//EN" "http://www.w3.org/Graphics/SVG/1.1/DTD/svg11.dtd">
<svg version="1.1" xmlns="http://www.w3.org/2000/svg" xmlns:xlink="http://www.w3.org/1999/xlink" x="0px" y="0px" width="64px"
	 height="64px" viewBox="0 0 64 64" enable-background="new 0 0 64 64" xml:space="preserve">
<g id="Layer_4">
	<ellipse fill="#666666" cx="32.5" cy="31.781" rx="22.625" ry="22.094"/>
</g>
<g id="Layer_3">
	<path fill="#E6E7E8" d="M48.561,15.438c-9.146-9.146-23.976-9.146-33.123,0.001c-9.146,9.146-9.145,23.975,0.002,33.122
		c9.146,9.148,23.976,9.148,33.123,0C57.709,39.416,57.709,24.584,48.561,15.438z M46.08,46.015l-6.382-1.966
		c-1.405,0.9-2.935,1.531-4.511,1.893l-3.142,5.925l-3.116-5.891c-1.596-0.343-3.146-0.96-4.574-1.853l-6.369,1.955l1.943-6.311
		c-0.934-1.436-1.577-3.002-1.945-4.619l-5.85-3.103l5.811-3.074c0.348-1.641,0.982-3.233,1.907-4.694l-1.931-6.292l6.272,1.932
		c1.45-0.936,3.032-1.583,4.664-1.945l3.096-5.838l3.083,5.828c1.619,0.353,3.19,0.985,4.633,1.904l6.345-1.947l-1.952,6.339
		c0.905,1.419,1.534,2.965,1.891,4.559l5.912,3.135l-5.902,3.123c-0.35,1.58-0.967,3.114-1.85,4.525L46.08,46.015z"/>
</g>
</svg>
