<?xml version="1.0" encoding="utf-8"?>
<!-- Generator: Adobe Illustrator 16.0.0, SVG Export Plug-In . SVG Version: 6.00 Build 0)  -->
<!DOCTYPE svg PUBLIC "-//W3C//DTD SVG 1.1//EN" "http://www.w3.org/Graphics/SVG/1.1/DTD/svg11.dtd">
<svg version="1.1" id="Layer_1" xmlns="http://www.w3.org/2000/svg" xmlns:xlink="http://www.w3.org/1999/xlink" x="0px" y="0px"
	 width="64px" height="64px" viewBox="0 0 64 64" enable-background="new 0 0 64 64" xml:space="preserve">
<g id="Layer_4" display="none">
	<rect display="inline" width="64" height="64"/>
</g>
<g id="Layer_1_1_" display="none">
	
		<image display="inline" overflow="visible" enable-background="new    " width="107" height="100" xlink:href="726ABB16.jpeg"  transform="matrix(0.4614 -0.4614 0.4614 0.4614 -16.9761 33.6768)">
	</image>
</g>
<g id="Layer_3_1_">
	<ellipse cx="31.631" cy="31.915" rx="17.118" ry="16.474"/>
</g>
<g id="Layer_2_1_">
	<g>
		<g>
			<path fill="#E6E7E8" stroke="#E6E7E8" stroke-miterlimit="10" d="M18.21,45.572L18.21,45.572L18.21,45.572z"/>
			<path fill="#E6E7E8" stroke="#E6E7E8" stroke-miterlimit="10" d="M17.816,42.982l0.394,2.59l2.582,0.43l0.228,4.734l3.128-3.082
				c4.839,2.424,10.566,2.467,15.439,0.119l3.1,3.143l0.301-4.727l2.59-0.393l0.432-2.582l4.73-0.227l-3.096-3.145
				c2.424-4.838,2.471-10.567,0.125-15.441l3.141-3.093l-4.729-0.303l-0.391-2.588l-2.58-0.433l-0.227-4.732l-3.141,3.092
				c-4.84-2.431-10.575-2.477-15.453-0.126l-3.087-3.135l-0.301,4.727l-2.589,0.394l-0.431,2.581l-4.734,0.229l3.086,3.135
				c-2.427,4.841-2.471,10.578-0.118,15.455l-3.125,3.074L17.816,42.982z M21.988,21.839c5.61-5.521,14.636-5.449,20.155,0.16
				c5.523,5.61,5.451,14.632-0.158,20.156c-5.609,5.521-14.632,5.449-20.153-0.16C16.311,36.385,16.38,27.361,21.988,21.839z"/>
			<polygon fill="#E6E7E8" stroke="#E6E7E8" stroke-miterlimit="10" points="18.413,18.205 18.413,18.205 18.414,18.204 			"/>
			<path fill="#E6E7E8" stroke="#E6E7E8" stroke-miterlimit="10" d="M45.575,45.799L45.575,45.799L45.575,45.799z"/>
			<polygon fill="#E6E7E8" stroke="#E6E7E8" stroke-miterlimit="10" points="45.79,18.42 45.79,18.42 45.792,18.419 			"/>
		</g>
	</g>
</g>
</svg>
