<?xml version="1.0" encoding="utf-8"?>
<!-- Generator: Adobe Illustrator 16.0.0, SVG Export Plug-In . SVG Version: 6.00 Build 0)  -->
<!DOCTYPE svg PUBLIC "-//W3C//DTD SVG 1.1//EN" "http://www.w3.org/Graphics/SVG/1.1/DTD/svg11.dtd">
<svg version="1.1" id="Layer_2" xmlns="http://www.w3.org/2000/svg" xmlns:xlink="http://www.w3.org/1999/xlink" x="0px" y="0px"
	 width="1800px" height="1800px" viewBox="0 0 1800 1800" enable-background="new 0 0 1800 1800" xml:space="preserve">
<g opacity="0.1">
	<path fill="#E55C25" d="M1362.991,805.457c-33.271-21.838-78.933-72.646-91.927-6.667c0,12.61,12.62,17.623,23.494,26.545
		c33.994,27.293,67.985,54.578,101.977,81.859c25.518,14.956,32.186,21.624,16.43,87.493c-23.301,27.18-46.594,54.361-69.896,81.536
		c-39.14,57.4-56.285,63.117-47.712,79.312c40.55,14.621,99.069,28.247,147.432,2.587c30.703-14.971,54.046-49.989,70.129-77.9
		c-10.016-40.475-57.523-63.765-26.088-128.542c30.534-3.464,56.47,2.003,76.217-4.196c24.755-6.28,37.855-28.905,33.782-34.36
		c-8.312-19.074-83.563,2.598-109.761-18.359C1457.895,872.912,1371.327,811.172,1362.991,805.457z"/>
	<path fill="#E55C25" d="M1681.627,215.953c-16.979-27.374-33.953-54.756-50.936-82.131c-5.373-5.719-10.752-11.439-16.125-17.159
		c-6.039-4.378-12.068-8.747-18.104-13.115c-29.379-5.392-62.958,21.757-69.063,31.562c-6.275,7.104-2.469,12.105,0.705,16.715
		c22.909,34.388,45.814,68.784,68.725,103.172c5.307,10.666,24.951,36.788,32.097,47.903c11.746,23.973,29.728,75.177-31.1,83.104
		c-19.548-2.134-49.556-15.47-67.82-30.135c-14.915-12.485-23.594-22.467-35.396-33.704c-8.733-11.329-4.447-22.76,6.132-34.016
		c23.715-21.385-2.482-53.773-20.241-70.095c-66.667-67.549-200.384-90.844-237.536-96.084c-59.692-7.989-84.778-1.905-133.36,9.05
		c-29.411,9.388-67.158,50.487-90.974,106.214c-21.434,60.49-28.578,128.601-19.526,204.333
		c27.304,210.322,20.888,195.553,20.961,346.58c0.033,69.401-41.127,284.834-80.438,337.914
		c-48.486,71.062-179.941,166.957-272.434,177.686c-84.728,7.395-160.016-21.635-232.797-60.319
		c-51.306-29.798-124.336-107.271-135.376-198.646c-12.458-57.215-1.662-130.248,19.156-184.092
		c28.717-59.198,91.271-132.393,138.9-164.78c54.217-38.316,98.392-37.761,143.842-22.863c55.25,24.291,60.49,29.53,82.348,50.056
		c53.874,65.685,53.396,79.021,37.555,121.283c-26.918,63.229-79.099,98.428-133.715,103.009
		c-36.271,3.045-68.584-37.2-105.737-30.483c-15.604,5.525-15.718,30.008-18.101,37.627c0,19.529,0.726,34.837,25.244,49.06
		c45.467,26.37,144.52,42.934,193.854,8.573c45.725-42.391,70.867-100.968,93.832-138.603c20.642-33.01,22.313-68.911,37.473-96.212
		c13.6-24.493,49.848-23.499,59.541-53.115c4.279-28.493-13.443-49.646-27.268-69.523c-16.822-24.203-41.336-43.063-62.521-64.229
		c-21.249-47.486-10.379-82.237,40.15-101.269c5.95-0.256,69.014-14.517,94.592-21.398c8.223-3.388,9.494-23.875-3.843-26.732
		c-11.83-4.317-95.101-17.456-101.61-23.809c-26.165-18.94-51.147-80.374-50.485-94.946c2.856-47.63,68.773-46.681,78.439-52.394
		c40.314-23.061,31.026-37.112,29.956-51.194c0,0-2.978-33.427-21.077-31.047c-32.864,4.946-48.82,29.769-76.83,30.446
		c-14.381-0.439-30.098-41.638-36.767-62.119c-22.862-56.442-34.242-52.272-81.269-50.969c-12.324,2.148-19.237,4.273-24.708,9.293
		c-18.521,21.406-28.815,42.628-30.902,70.585c-0.294,13.958,10.887,92.227,22.962,101.567
		c53.107,41.039,54.839,92.397,45.822,149.519c-15.971,53.65-69.793,106.52-90.134,117.11
		c-54.682,27.061-109.373,54.114-164.054,81.175c-16.666,10.765-33.324,21.521-49.99,32.287c-2.052,12.711-2.052,12.709,0-0.011
		c-65.396,42.748-202.857,169.841-233.678,260.873c-17.443,42.952-23.242,62.056-30.26,94.317
		c-29.304,134.722-45.609,214.73,29.633,361.25c60.979,98.299,232.202,249.635,237.271,247.863
		c152.353,110.97,377.749,92.646,532.438,29.521c11.298-4.609,107.644-50.962,143.596-93.305
		c16.896-23.188,33.794-46.38,50.692-69.566c12.925-21.29,25.856-42.583,38.783-63.871c19.841-36.173,28.891-59.987,41.753-118.572
		c8.096-26.194,12.22-48.401,13.811-72.881c10.327-158.731,5.715-304.821-24.679-499.806
		c-25.809-194.626-87.965-386.813-40.573-465.401c0,0,35.009-56.441,136.499-24.489c50.959,20.894,110.509,31.784,118.84,102.226
		c0.434,34.431-18.144,43.004-22.904,78.25c-9.205,31.938-2.384,105.738,6.086,123.56c5.024,12.604,9.164,25.645,15.223,37.729
		c61.417,122.615,111.229,127.939,187.813,20.367c4.734-8.771-2.25-22.097-21.104-21.063c-44.099,7.09-77.519-35.804-83.286-54.127
		c-0.188-51.723,31.604-80.466,73.318-102.077c15.563-7.724,32.234-2.722,43.729,2.398c8.989,3.215,13.273,40.604,23.87,46.397
		c5.599,4.686,30.604,9.212,48.756,9.083c11.856-3.207,20.664-12.019,32.056-24.726c7.9-7.773,10.76-16.347,16.975-65.876
		c0.477-33.646,0.952-67.292,1.424-100.939c-0.438-6.058-0.874-12.108-1.313-18.166
		C1699.521,274.22,1686.695,217.601,1681.627,215.953z"/>
</g>
</svg>
