<?xml version="1.0" encoding="utf-8"?>
<!-- Generator: Adobe Illustrator 16.0.0, SVG Export Plug-In . SVG Version: 6.00 Build 0)  -->
<!DOCTYPE svg PUBLIC "-//W3C//DTD SVG 1.1//EN" "http://www.w3.org/Graphics/SVG/1.1/DTD/svg11.dtd">
<svg version="1.1" id="Layer_1" xmlns="http://www.w3.org/2000/svg" xmlns:xlink="http://www.w3.org/1999/xlink" x="0px" y="0px"
	 width="1800px" height="1800px" viewBox="0 0 1800 1800" enable-background="new 0 0 1800 1800" xml:space="preserve">
<g id="Layer_1_1_" display="none">
	
		<image display="inline" overflow="visible" enable-background="new    " width="78" height="78" xlink:href="R:\Downloads R\brutal restraint.png"  transform="matrix(20.2753 -10.7261 10.7335 20.2892 -224.9844 228.5547)">
	</image>
</g>
<g id="Layer_2" display="none">
	<path display="inline" fill="#FFFFFF" stroke="#000000" stroke-miterlimit="10" d="M734.333,843c0,0,22.667-18.666,102-21.333
		S995.667,725,999,695s12.666-92-58-146.667c0,0,86.001,32.667,112.667,92s-40,128-58,142s-92.667,77.333-166,78
		C756.333,861,742.333,863.667,721,881C711.667,853,734.333,843,734.333,843z"/>
	<path display="inline" fill="#FFFFFF" stroke="#000000" stroke-miterlimit="10" d="M711,969.667c0,0-0.667-70,83.333-84
		s202-46.667,232-87.333s70.001-144.667,55.334-184.667c0,0,35.999,112-1.334,168S1001.666,881,909,905
		c-92.667,24-123.333-3.334-162,36C727.667,953,715,962.334,711,969.667z"/>
</g>
<g id="Layer_3" display="none">
	<path display="inline" fill="#FFFFFF" d="M185.366,1697.459c0-537.993,0-1075.825,0-1613.493c537.994,0,1075.825,0,1613.493,0
		c0,537.994,0,1075.825,0,1613.493C1260.866,1697.459,723.034,1697.459,185.366,1697.459z M350.664,1123.589l0.271,0.47
		c-0.274-6.021-2.613-12.985-0.384-17.857c4.218-9.216,11.063-17.23,16.813-25.744c5.812,7.155,13.201,13.548,17.091,21.625
		c7.428,15.427,12.012,32.217,19.341,47.696c8.768,18.516,15.649,35.844,3.738,56.232c-3.442,5.896-2.25,17.548,1.367,24.018
		c21.836,39.054,44.226,77.854,68.258,115.577c5.812,9.122,18.495,13.865,28.02,20.621c1.917-2.408,3.833-4.82,5.75-7.231
		c-8.73-18.345-18.682-36.229-25.845-55.165c-7.024-18.571-13.386-38.776,14.333-54.418c3.023,15.65,4.672,27.388,7.602,38.799
		c14.659,57.138,30.342,73.138,82.235,37.854c6.945-4.721,18.776-2.253,29.767-3.242c-6.699,53.444-61.625,34.715-85.252,72.412
		c28.601,4.138,51.336,8.588,74.281,10.362c17.057,1.315,28.653,6.359,36.695,22.847c5.466,11.209,16.596,19.657,28.57,33.143
		c10.533-18.771,18.729-31.656,25.213-45.352c8.299-17.531,19.998-19.543,35.536-10.364c22.111,13.064,44.457,25.76,66.25,39.337
		c8.954,5.579,16.729,13.05,25.13,19.729c-12.196,22.039-25.287,35.21-48.795,31.925c-16.801-2.35-28.096,4.82-34.776,20.248
		c-0.871,2.019-3.96,3.073-6.562,4.971c-6.733-0.745-13.752-1.522-25.426-2.818c14.137,10.547,24.152,18.022,34.172,25.496
		c-1.546,3.159-3.091,6.321-4.637,9.483c-31.311-10.859-62.621-21.721-93.929-32.583c-0.978,2.188-1.955,4.371-2.931,6.557
		c35.983,20.089,72.007,40.107,107.929,60.311c10.442,5.875,24.994,9.791,30.104,18.863c20.014,35.495,47.985,30.605,80.235,23.046
		c21.953-5.145,30.214-15.252,24.834-35.782c-5.529-21.106,2.008-36.124,16.624-50.764c23.896-23.93,51.928-32.492,84.823-28.017
		c44.373,6.036,88.735,12.176,133.173,17.729c119.725,14.965,244.413-10.591,302.864-142.028
		c7.818-17.581,20.938-26.868,40.463-32.13c13.444-3.621,28.596-14.986,35.118-27.119c11.615-21.604,20.692-45.874,24.48-70.026
		c3.958-25.226,13.699-44.332,30.639-63.115c145.621-161.483,212.162-347.061,171.736-565.645
		c-21.923-118.539-70.847-222.679-155.335-309.303c-14.59-14.959-30.201-28.923-45.34-43.347c-1.205,3.839-0.46,5.445,0.72,6.615
		c168.71,167.619,237.657,365.252,179.608,600.493c-15.394,62.381-39.749,121.605-78.261,173.345
		c-27.498,36.938-55.987,74.354-90.183,104.609c-18.291,16.182-33.161,25.157-18.854,50.212
		c-15.063,6.942-30.58,10.345-41.009,19.527c-53.961,47.519-120.878,72.34-182.742,105.797c-14.363,7.77-33.586,6.961-50.699,9.072
		c-9.469,1.169-19.2,0.209-28.813,0.209c-0.191,2.215-0.382,4.434-0.572,6.647c10.633,2.715,21.266,5.431,34.569,8.827
		c-4.938,4.449-7.033,7.297-9.848,8.732c-31.962,16.296-110.095,5.794-134.559-20.734c-6.745-7.314-9.867-25.229-5.689-34.022
		c13.521-28.475,10.574-56.872,6.713-85.887c-1.438-10.813-3.753-21.509-5.668-32.255c27.113,34.97,36.682,75.021,39.488,117.387
		c1.791,27.041,10.467,33.376,36.966,26.625c10.655-2.715,20.616-8.27,30.777-12.793c22.654-10.09,44.49-26.534,67.986-29.357
		c67.718-8.135,116.761-52.344,166.791-88.479c91.082-65.793,157.759-153.816,200.175-260.634
		c72.738-183.178,67.595-360.775-39.928-526.911c-119.718-184.975-295.396-281.639-515.559-284.372
		c-72.542-0.902-145.828,21.667-217.936,37.352c-37.468,8.147-73.109,24.678-109.566,37.427
		c64.158-29.457,128.319-58.913,183.07-84.051c-80.426,18.096-165.862,51.089-239.999,110.271
		c19.111-8.847,38.224-17.692,57.334-26.54c-8.69,6.936-17.341,13.921-26.071,20.804c-43.86,34.568-92.467,64.624-130.538,104.69
		c-61.328,64.535-124.037,126.977-192.163,184.25c-14.108,11.862-24.218,28.864-34.841,44.407
		c-17.35,25.377-31.694,53.021-50.752,76.967c-30.757,38.646-44.242,81.214-38.344,129.894c2.796,23.069,5.897,46.189,10.605,68.924
		c19.596,94.669,17.154,187.913-14.426,280.009c-3.003,8.756-0.374,20.228,1.927,29.894
		c17.601,73.983,70.875,126.731,112.596,186.243c5.652,8.066,17.786,11.587,30.653,19.516c-4.465-60.424-72.18-74.873-75.77-129.752
		c7.155,0.806,11.653,1.313,17.59,1.979c-2.848-12.473-5.27-23.074-6.166-27.004c-14.409-9.147-27.254-13.118-31.97-21.606
		c-3.825-6.891,2.109-19.203,4.431-33.521c11.48,9.668,17.541,14.767,23.597,19.865c1.778-0.868,3.554-1.733,5.332-2.604
		C360.168,1155.164,355.415,1139.377,350.664,1123.589z M1265.551,139.194c-78.197-17.531-158.893-27.709-225.519-19.192
		C1105.857,125.603,1186.928,132.501,1265.551,139.194z"/>
	<path display="inline" d="M758.814,218.314c36.468-12.745,72.109-29.275,109.578-37.422
		c72.106-15.684,145.393-38.253,217.935-37.352c220.162,2.732,395.841,99.396,515.559,284.372
		c107.521,166.136,112.666,343.734,39.929,526.911c-42.416,106.816-109.094,194.841-200.176,260.634
		c-50.029,36.137-99.072,80.346-166.791,88.48c-23.496,2.822-45.332,19.268-67.986,29.356
		c-10.161,4.523-20.122,10.078-30.777,12.793c-26.499,6.751-35.175,0.416-36.966-26.625c-2.809-42.365-12.375-82.417-39.488-117.387
		c1.915,10.746,4.229,21.442,5.668,32.255c3.861,29.015,6.809,57.412-6.713,85.887c-4.178,8.794-1.056,26.708,5.688,34.022
		c24.465,26.528,102.598,37.03,134.56,20.734c2.813-1.437,4.91-4.282,9.848-8.732c-13.305-3.396-23.938-6.112-34.569-8.827
		c0.19-2.215,0.381-4.434,0.572-6.647c9.612,0,19.344,0.96,28.813-0.209c17.112-2.111,36.336-1.304,50.698-9.071
		c61.865-33.457,128.782-58.279,182.744-105.797c10.428-9.185,25.944-12.586,41.008-19.528
		c-14.309-25.054,0.563-34.03,18.854-50.212c34.194-30.255,62.684-67.67,90.184-104.609c38.511-51.738,62.865-110.964,78.26-173.345
		c58.049-235.241-10.898-432.875-179.608-600.493c-1.18-1.169-1.925-2.776-0.72-6.615c15.139,14.424,30.75,28.388,45.34,43.347
		c84.488,86.625,133.412,190.764,155.335,309.303c40.425,218.583-26.115,404.16-171.735,565.645
		c-16.939,18.783-26.682,37.891-30.64,63.115c-3.788,24.152-12.865,48.422-24.479,70.026c-6.523,12.133-21.676,23.498-35.119,27.12
		c-19.523,5.261-32.645,14.548-40.463,32.129c-58.451,131.438-183.141,156.993-302.864,142.029
		c-44.438-5.556-88.8-11.694-133.173-17.73c-32.896-4.476-60.927,4.087-84.823,28.017c-14.616,14.64-22.152,29.656-16.624,50.764
		c5.379,20.53-2.882,30.639-24.834,35.782c-32.25,7.561-60.223,12.449-80.235-23.046c-5.112-9.071-19.662-12.988-30.104-18.863
		c-35.922-20.202-71.945-40.222-107.928-60.311c0.975-2.185,1.952-4.369,2.93-6.557c31.308,10.862,62.618,21.724,93.929,32.583
		c1.546-3.162,3.091-6.324,4.638-9.483c-10.021-7.474-20.037-14.949-34.173-25.496c11.673,1.296,18.692,2.073,25.425,2.818
		c2.603-1.896,5.69-2.952,6.563-4.971c6.681-15.428,17.975-22.598,34.776-20.248c23.508,3.286,36.599-9.886,48.795-31.925
		c-8.4-6.681-16.177-14.15-25.13-19.729c-21.793-13.577-44.139-26.271-66.25-39.337c-15.538-9.178-27.236-7.167-35.536,10.365
		c-6.483,13.693-14.68,26.58-25.214,45.351c-11.974-13.484-23.104-21.933-28.569-33.142c-8.042-16.487-19.64-21.531-36.695-22.848
		c-22.944-1.774-45.681-6.226-74.282-10.361c23.627-37.698,78.554-18.969,85.254-72.413c-10.991,0.989-22.822-1.479-29.768,3.243
		c-51.894,35.282-67.576,19.282-82.234-37.854c-2.931-11.411-4.58-23.147-7.603-38.799c-27.719,15.642-21.356,35.847-14.333,54.418
		c7.163,18.937,17.114,36.821,25.845,55.165c-1.917,2.411-3.834,4.823-5.75,7.232c-9.523-6.757-22.208-11.5-28.02-20.621
		c-24.032-37.724-46.421-76.524-68.258-115.578c-3.617-6.469-4.81-18.122-1.367-24.018c11.911-20.39,5.028-37.718-3.738-56.232
		c-7.33-15.479-11.914-32.271-19.341-47.696c-3.891-8.077-11.279-14.47-17.091-21.625c-5.751,8.514-12.597,16.528-16.813,25.744
		c-2.229,4.872,0.109,11.838,0.381,17.854c-21.094-30.286,8.601-46.386,21.569-68.433c-37.188,7.752-57.127,58.285-32.757,86.87
		c4.082-7.064,7.499-12.984,10.918-18.902c4.75,15.788,9.504,31.575,14.254,47.366c-1.778,0.869-3.553,1.734-5.332,2.604
		c-6.056-5.1-12.115-10.197-23.597-19.865c-2.321,14.316-8.257,26.63-4.431,33.521c4.715,8.488,17.562,12.459,31.97,21.606
		c0.896,3.93,3.318,14.531,6.166,27.004c-5.937-0.667-10.435-1.175-17.589-1.979c3.589,54.88,71.304,69.328,75.769,129.752
		c-12.868-7.929-25.001-11.448-30.653-19.516c-41.721-59.512-94.995-112.26-112.596-186.243c-2.301-9.666-4.93-21.138-1.927-29.894
		c31.582-92.096,34.022-185.339,14.426-280.009c-4.708-22.734-7.809-45.854-10.605-68.924
		c-5.897-48.679,7.587-91.247,38.344-129.894c19.058-23.946,33.403-51.589,50.752-76.966c10.623-15.543,20.732-32.545,34.841-44.408
		c68.126-57.274,130.835-119.715,192.163-184.25c38.072-40.067,86.677-70.122,130.538-104.69
		c8.73-6.882,17.381-13.868,26.071-20.804L758.814,218.314z M1178.629,740.856c-28.429-6.434-44.813-27.979-63.187-45.747
		c11.536-15.783,20.898-28.591,32.46-44.403c29.853,24.446,46.195,6.087,60.014-20.519c-2.528-7.063-5.235-14.62-8.036-22.444
		c30.784-19.819,41.73,10.958,60.915,21.213c10.957-1.985,22.367-4.054,33.766-6.12c15.052,27.171-6.602,29.813-21.245,35.791
		c9.351,30.012,27.488,42.83,53.418,38.031c-3.367-9.494-6.703-18.896-9.282-26.166c10.765-15.272,19.85-28.161,30.898-43.84
		c14.4,18.941,27.787,36.551,41.174,54.156c2.879-1.467,5.758-2.935,8.638-4.401c-9.512-22.668-30.183-45.287-3.759-64.775
		c-2.689-13.408-4.724-23.551-8.074-40.256c19.796,7.706,33.768,11.646,46.217,18.396c13.37,7.255,25.311,17.181,40.52,3.566
		c-9.295-11.479-19.084-20.261-24.771-31.179c-20.718-39.784-38.761-81.826-92.421-77.802c-7.562-16.887-14.05-31.375-22.925-51.194
		c39.466,16.492,72.625,30.348,104.982,43.87c-7.66-30.102-14.343-56.953-21.458-83.692c-1.063-4.001-3.261-8.656-6.423-10.994
		c-27.525-20.344-54.605-41.458-83.424-59.825c-20.095-12.81-44.343-19.324-63.777-32.887c-23.35-16.298-44.924-32.515-73.7-19.208
		c-8.313-7.688-14.513-13.423-20.692-19.142c-5.041,0.725-9.448,0.773-13.477,2.036c-25.835,8.097-48.133,11.072-62.086-21.2
		c-3.332-7.701-24.485-13.734-35.175-11.151c-41.771,10.104-82.567,23.868-126.571,14.616c-5.268-1.106-14.25-0.033-16.67,3.422
		c-12.685,18.096-31.568,17.7-50.202,20.993c-9.975,1.763-19.46,9.146-28.018,15.533c-27.378,20.43-48.5,50.288-88.678,49.899
		c-16.556-0.162-20.063,14.421-13.575,28.782c4.526,10.02,10.771,19.263,17.205,30.52c-11.58,17.498-22.759,34.394-34.349,51.907
		c-10.815-3.911-19.445-7.036-25.768-9.321c-11.523,6.253-20.952,11.369-29.553,16.037c-3.301,8.017-4.498,16.753-9.428,21.938
		c-28.731,30.232-64.919,53.792-82.712,93.742c-0.573,1.286-3,1.629-4.273,2.743c-17.379,15.209-37.713,28.254-51.137,46.405
		c-11.552,15.619-16.106,36.805-22.011,56.064c-3.399,11.088-3.341,23.239-5.052,36.562c11.951,1.321,27.07,2.993,42.913,4.746
		c4.786,5.248,9.937,10.898,19.054,20.897c16.484-6.687,33.951-19.331,51.777-19.864c40.426-1.209,81.964-32.646,121.81,1.973
		c1.394,1.211,4.96-0.077,12.55-0.441c19.275-23.17,40.625-48.828,66.508-79.941c10.221,17.309,19.717,32.438,28.257,48.09
		c11.027,20.214,22.875,31.038,46.82,14.882c18.315-12.361,36.546-2.746,48.285,18.065c8.114,14.391,19.901,26.711,30.051,39.958
		c1.981-1.235,3.965-2.47,5.95-3.705c-0.341,7.405-0.68,14.813-1.132,24.681c15.475-5.67,28.633-10.491,43.214-15.832
		c8.726,19.685,19.207,38.689,47.247,29.603c3.132-1.015,8.297,1.995,11.671,4.352c17.5,12.22,34.726,24.832,52.043,37.308
		c1.309-1.899,2.617-3.799,3.925-5.698c13.771,8.891,28.134,17.013,41.098,26.959c8.041,6.167,13.054,16.3,21.124,22.41
		c6.448,4.88,15.46,6.373,23.335,9.368c1.597-2.719,3.192-5.438,4.788-8.155c-13.497-16.048-26.996-32.093-41.706-49.581
		c6.233-8.357,11.545-15.48,16.859-22.602c0.841,2.32,1.682,4.642,2.521,6.963c24.459-1.149,48.914-2.298,77.707-3.652
		c-6.294-14.346-9.257-21.102-12.12-27.63c3.043-6.802,5.936-13.267,9.748-21.789c-26.512,9.751-50.139,18.442-77.319,28.441
		c-2.164-15.318-3.919-27.72-5.677-40.12c12.886,2.301,25.772,4.602,38.658,6.901c1.063-3.022,2.127-6.046,3.188-9.068
		c-17.637-16.076-35.275-32.149-52.912-48.226c-2.086,1.35-4.172,2.697-6.258,4.043
		C1166.813,709.715,1172.722,725.286,1178.629,740.856z M639.092,877.21c-1.271-1.424-2.543-2.849-3.813-4.272
		c-9.497,6.009-19.133,11.805-28.461,18.061c-39.972,26.802-80.858,52.392-119.367,81.161c-21.564,16.107-39.17,37.549-42.587,73.31
		c14.926-7.115,25.082-12.674,35.76-16.909c35.046-13.903,69.541-25.603,104.256,3.071c13.553,11.195,25.437,3.73,26.438-13.371
		c1.187-20.266,11.066-32.965,27.345-43.686c31.977-21.069,65.116-29.74,102.761-17.188c26.855,8.956,53.331,6.779,83.917-9.485
		c-42.994-17.049-77.942-45.465-122.342-19.512c-4.084-11.84-6.488-18.811-9.441-27.364c-21.672,2.63-42.35,5.14-66.967,8.128
		C632.591,893.822,635.841,885.518,639.092,877.21z M926.348,798.423c11.381,8.58,18.334,13.073,24.413,18.536
		c24.569,22.069,49.247,44.744,47.847,81.52c-2.219,58.055-81.893,107.584-136.776,86.235c-7.557-2.937-18.748-6.329-24.304-2.97
		c-28.811,17.419-56.561,4.627-85.069,0.831c-24.423-3.251-49.419-4.948-73.92-3.436c-9.592,0.594-18.525,11.813-27.759,18.191
		c1.229,2.289,2.462,4.577,3.695,6.865c20.877,2.855,41.726,5.941,62.638,8.525c47.808,5.902,95.52,14.274,143.512,16.557
		c47.995,2.277,94.029-10.613,135.778-35.369c23.726-14.065,36.958-34.755,37.766-63.476
		C1035.945,867.118,999.842,820.25,926.348,798.423z M1066.594,938.669c-3.516,5.65-7.027,10.771-10.019,16.177
		c-33.313,60.207-83.404,98.014-152.636,99.495c-50.271,1.079-100.868-6.872-151.096-12.735
		c-26.397-3.081-52.117-11.792-78.497-15.315c-31.081-4.146-50.937,14.207-44.997,43.274c36.786-21.141,69.047-3.241,104.638,7.423
		c88.939,26.649,178.698,23.165,266.277-10.411c34.291-13.146,77.691-86.688,72.348-122.735
		C1072.434,942.625,1070.23,941.71,1066.594,938.669z M1037.42,1067.898c-72.17,57.421-154.786,61.209-239.021,48.748
		c-36.071-5.338-70.71-20.627-105.853-31.854c-22.66-7.236-41.945-4.498-56.678,15.108c8.158,23.729,14.838,27.73,37.882,24.982
		c9.148-1.091,18.98-2.912,27.601-0.771c27.998,6.956,55.337,16.578,83.361,23.385c68.755,16.702,135.281,5.299,199.293-20.987
		C1009.107,1116.201,1030.854,1098.999,1037.42,1067.898z M1214.068,1038.008c24.434,6.254,37.344-22.197,58.106-32.236
		c30.419,15.336,30.419,15.336,47.022-1.85c-6.528-18.495-13.206-37.415-21.079-59.719c-9.685,6.097-17.204,11.133-25.02,15.672
		c-8.517,4.947-17.301,9.431-24.868,13.521c-35.268-30.271-35.268-30.271-73.78,6.205
		C1186.537,997.421,1198.309,1014.774,1214.068,1038.008z M955.324,1446.136c0.011,2.22,0.018,4.442,0.027,6.665
		c80.723,9.387,161.252,21.625,242.236,27.045c45.984,3.076,86.753-18.576,120.483-51.989
		C1198.793,1466.053,1076.229,1442.789,955.324,1446.136z M458.794,1063.555c69.935,26.491,85.119,103.681,148.562,141.163
		c-2.304-10.187-2.068-14.088-3.883-16.346c-10.706-13.333-21.617-26.527-32.972-39.312c-24.9-28.046-22.799-51.192,6.925-73.336
		c3.273-2.438,5.988-5.627,8.696-8.214C571.205,1038.611,508.244,1035.013,458.794,1063.555z M680.038,1137.425
		c-1.351,3.485-2.703,6.968-4.054,10.451c35.602,56.39,94.859,57.423,152.867,59.354c43.066,1.432,102.849-21.588,109.666-42.577
		c-8.796,2.344-16.95,2.527-22.636,6.37c-26.704,18.043-56.789,16.738-84.925,10.576c-39.996-8.762-78.694-23.399-118.005-35.334
		C702.086,1142.969,691.014,1140.354,680.038,1137.425z M1087.307,1032.479c-2.435,1.747-4.869,3.495-7.304,5.243
		c7.907,13.65,15.815,27.303,26.351,45.481c-1.791,0.599-8.346,2.796-14.901,4.993c1.478,1.922,2.958,3.842,4.436,5.764
		c20.563-3.772,41.127-7.549,61.691-11.322c0.389,2.063,0.78,4.124,1.169,6.188c-6.706,7.961-13.411,15.919-20.117,23.88
		c1.52,3.188,3.036,6.375,4.553,9.563c10.123-3.137,24.09-3.209,29.545-10.06c10.545-13.244,21.67-16.758,37.546-16.457
		c15.763,0.298,27.825-6.845,26.773-32.866c-12.574,4.044-23.24,5.902-32.349,10.714c-22.036,11.64-33.833,7.155-44.386-15.666
		c-3.73-8.063-11.943-17.508-19.831-19.495C1123.343,1034.123,1105.1,1034.199,1087.307,1032.479z M397.416,992.928
		c-18.333-56.98-1.962-105.562,5.978-154.423c8.934-54.965,59.828-78.077,96.914-111.325
		c-50.708,6.738-104.013,60.443-120.613,116.674C367.813,884.09,374.41,972.511,397.416,992.928z M716.669,1208.186
		c-51.919-20.678-74.771-77.707-126.335-102.877C583.768,1154.455,670.675,1224.826,716.669,1208.186z M848.465,1394.615
		c2.264-1.974,4.528-3.947,6.792-5.92c-4.127-5.95-7.825-12.261-12.452-17.791c-23.496-28.099-43.842-56.299-34.205-97.129
		c2.688-11.389-6.185-25.504-9.756-38.366c-3.956,0.374-7.911,0.75-11.865,1.124c-9.398,28.06-6.871,59.572-1.186,86.444
		C792.618,1355.24,819.177,1378.474,848.465,1394.615z M1058.615,1347.04c-33.979,7.557-67.573,14.333-100.777,22.662
		c-21.304,5.347-41.141,11.144-59.732-7.811c-4.563-4.65-16.854-5.758-23.439-3.12c-5.256,2.104-7.243,12.375-10.693,19.049
		C902.813,1396.997,1038.082,1374.622,1058.615,1347.04z M734.048,1350.058c0.803-2.986,1.604-5.976,2.404-8.966
		c-29.525-6.404-59.049-12.81-91.916-19.938c-3.854,3.521-9.894,9.03-15.442,14.101c13.578,31.403,30.795,35.218,54.842,16.086
		c6.771-5.385,18.117-6.388,27.465-6.735C718.872,1344.325,726.494,1348.088,734.048,1350.058z M382.325,624.015
		c31.015-41.963,62.03-83.924,93.042-125.885c-2.712-1.874-5.425-3.748-8.139-5.625
		C433.656,532.951,389.612,565.994,382.325,624.015z M382.901,771.333c8.842-50.434,17.76-101.295,27.526-157.014
		C386.131,635.558,370.202,745.143,382.901,771.333z M329.446,812.695c5.468-47.285,10.539-91.15,16.409-141.916
		C317.424,718.494,305.819,761.493,329.446,812.695z M439.652,1132.05c4.922,35.983,7.787,65.296,13.362,94.08
		c2.735,14.126,11.685,23.372,30.623,4.746C450.886,1208.314,482.194,1160.888,439.652,1132.05z M1279.452,839.876
		c-2.336-0.849-4.672-1.695-7.009-2.541c-7.23,5.223-14.459,10.448-21.938,15.851c-5.855-4.078-9.966-6.854-13.98-9.764
		c-4.421-3.2-8.752-6.522-13.957-10.418c-5.182,25.698,7.528,48.315,29.146,55.907c6.143-7.862,13.116-15.038,17.917-23.453
		C1274.105,857.617,1276.27,848.456,1279.452,839.876z M1327.82,880.698c-23.515-13.424-40.907-5.35-48.957,21.229
		C1300.023,914.128,1314.283,908.324,1327.82,880.698z M795.585,1564.709c4.632-1.831,9.267-3.659,13.898-5.49
		c-2.899-12.738-2.88-27.485-9.755-37.498c-4.392-6.399-18.978-5.799-28.993-8.337c-1.738,3.005-3.474,6.011-5.208,9.017
		C775.547,1536.503,785.566,1550.605,795.585,1564.709z M1377.306,717.307c-9.146-17.446-17.814-33.986-29.851-56.947
		C1341.694,703.088,1352.86,723.331,1377.306,717.307z M583.591,1217.51c-3.162,1.041-6.323,2.079-9.489,3.119
		c-11.55,22.781-6.521,34.051,28.354,48.53C596.166,1251.944,589.88,1234.729,583.591,1217.51z M1416.523,1329.98
		c-1.592-3.459-3.181-6.916-4.771-10.378c-29.556,11.645-59.107,23.287-88.66,34.934c1.054,2.637,2.108,5.272,3.162,7.91
		C1356.346,1351.624,1386.436,1340.804,1416.523,1329.98z M1236.264,680.923c-2.957,2.614-5.917,5.229-8.877,7.845
		c5.063,11.358,10.127,22.719,15.191,34.076c3.114-0.124,6.229-0.25,9.342-0.374c2.188-7.542,8.252-17.028,5.668-22.173
		C1253.567,692.291,1243.672,687.232,1236.264,680.923z"/>
	<path display="inline" d="M759.23,217.999c-19.11,8.848-38.223,17.692-57.334,26.54c74.136-59.181,159.572-92.173,240-110.27
		c-54.75,25.138-118.912,54.594-183.076,84.048C758.814,218.314,759.23,217.999,759.23,217.999z"/>
	<path display="inline" d="M1265.551,139.194c-78.623-6.693-159.692-13.591-225.519-19.192
		C1106.658,111.485,1187.354,121.663,1265.551,139.194z"/>
	<path display="inline" fill="#FFFFFF" d="M1178.232,740.49c1.753,12.402,3.508,24.804,5.672,40.122
		c27.182-9.999,50.809-18.689,77.319-28.441c-3.813,8.521-6.704,14.987-9.749,21.789c2.864,6.529,5.827,13.285,12.121,27.63
		c-28.793,1.354-53.248,2.503-77.707,3.652c-0.841-2.321-1.682-4.643-2.521-6.963c-5.314,7.122-10.626,14.245-16.859,22.602
		c14.71,17.487,28.209,33.533,41.706,49.581c-1.596,2.718-3.192,5.438-4.788,8.155c-7.875-2.995-16.887-4.488-23.335-9.368
		c-8.071-6.109-13.083-16.242-21.124-22.41c-12.964-9.946-27.327-18.067-41.098-26.959c-1.309,1.899-2.616,3.799-3.925,5.698
		c-17.317-12.475-34.543-25.087-52.043-37.307c-3.374-2.356-8.539-5.367-11.671-4.353c-28.041,9.087-38.521-9.918-47.248-29.603
		c-14.58,5.342-27.738,10.163-43.213,15.833c0.451-9.868,0.791-17.275,1.132-24.682c-1.985,1.235-3.969,2.47-5.95,3.705
		c-10.148-13.247-21.937-25.566-30.051-39.958c-11.739-20.812-29.97-30.427-48.285-18.065c-23.945,16.155-35.793,5.332-46.82-14.882
		c-8.54-15.653-18.036-30.781-28.257-48.09c-25.883,31.113-47.232,56.771-66.508,79.941c-7.589,0.364-11.156,1.652-12.55,0.441
		c-39.846-34.618-81.385-3.182-121.81-1.973c-17.826,0.533-35.293,13.179-51.778,19.864c-9.117-9.999-14.267-15.649-19.053-20.897
		c-15.843-1.753-30.962-3.425-42.913-4.746c1.71-13.322,1.652-25.474,5.052-36.562c5.904-19.26,10.457-40.445,22.011-56.064
		c13.424-18.151,33.758-31.196,51.137-46.405c1.272-1.114,3.7-1.458,4.272-2.743c17.794-39.95,53.98-63.51,82.713-93.742
		c4.93-5.185,6.127-13.921,9.428-21.938c8.6-4.667,18.027-9.784,29.553-16.038c6.322,2.285,14.952,5.41,25.768,9.321
		c11.59-17.513,22.769-34.408,34.349-51.907c-6.433-11.257-12.679-20.5-17.205-30.52c-6.488-14.361-2.979-28.944,13.575-28.782
		c40.178,0.389,61.3-29.469,88.678-49.899c8.557-6.387,18.043-13.771,28.018-15.533c18.634-3.293,37.519-2.897,50.201-20.993
		c2.42-3.455,11.403-4.528,16.67-3.422c44.004,9.251,84.802-4.514,126.572-14.616c10.688-2.583,31.843,3.45,35.174,11.151
		c13.954,32.272,36.251,29.297,62.086,21.2c4.028-1.263,8.437-1.312,13.478-2.036c6.18,5.718,12.381,11.454,20.691,19.142
		c28.777-13.308,50.353,2.91,73.7,19.208c19.437,13.563,43.684,20.077,63.778,32.887c28.816,18.366,55.896,39.48,83.424,59.825
		c3.162,2.338,5.358,6.993,6.423,10.994c7.115,26.739,13.798,53.591,21.458,83.692c-32.358-13.522-65.518-27.378-104.983-43.87
		c8.875,19.821,15.363,34.308,22.926,51.194c53.66-4.023,71.703,38.019,92.421,77.802c5.688,10.918,15.478,19.7,24.771,31.179
		c-15.209,13.613-27.147,3.688-40.519-3.565c-12.449-6.751-26.421-10.691-46.218-18.396c3.353,16.705,5.386,26.849,8.074,40.256
		c-26.423,19.488-5.753,42.107,3.76,64.775c-2.881,1.467-5.76,2.935-8.639,4.401c-13.386-17.605-26.771-35.215-41.173-54.156
		c-11.05,15.679-20.135,28.567-30.899,43.84c2.579,7.271,5.916,16.671,9.282,26.166c-25.929,4.799-44.066-8.02-53.418-38.031
		c14.646-5.978,36.297-8.62,21.246-35.791c-11.397,2.066-22.809,4.134-33.766,6.12c-19.186-10.254-30.131-41.032-60.915-21.213
		c2.801,7.824,5.508,15.381,8.036,22.445c-13.817,26.604-30.161,44.964-60.015,20.518c-11.561,15.813-20.923,28.621-32.46,44.403
		c18.372,17.768,34.759,39.313,63.188,45.747L1178.232,740.49z M1005.063,544.25c-6.547,26.077-20.047,44.446-36.697,26.688
		c-29.725-31.701-64.522-7.807-96.287-17.166c29.386,28.684,59.729,54.739,91.974,78.186c6.948,5.051,25.193,5.185,30.608-0.154
		c20.65-20.354,43.025-23.051,64.214-14.254c19.688-10.136,35.445-18.243,53.162-27.359c-1.803-7.298-3.902-15.794-7.06-28.567
		c-16.355,11.236-28.727,19.735-41.94,28.813C1044.561,575.715,1026.774,561.549,1005.063,544.25z M1227.363,472.712
		c14.526-11.201,14.058-20.326,3.812-33.061c-7.991-9.929-14.647-22.437-17.36-34.791c-5.394-24.54-10.297-28.863-37.979-24.313
		C1216.329,397.264,1201.309,444.753,1227.363,472.712z M1302.206,428.329c-0.036-2.116-0.071-4.23-0.106-6.347
		c-21.396-0.802-34.435-31.312-62.641-15.455c9.978,14.05,18.856,26.56,29.605,41.697
		C1279.485,441.97,1290.846,435.148,1302.206,428.329z M1325.934,605.757c24.779-10.147,27.237-21.306,8.083-42.403
		C1326.699,576.89,1309.563,585.722,1325.934,605.757z"/>
	<path display="inline" fill="#FFFFFF" d="M1214.068,1038.008c-15.761-23.232-27.531-40.587-39.617-58.404
		c38.514-36.479,38.514-36.479,73.781-6.206c7.566-4.092,16.352-8.574,24.867-13.521c7.814-4.539,15.336-9.575,25.02-15.672
		c7.873,22.304,14.551,41.224,21.079,59.719c-16.604,17.186-16.604,17.186-47.022,1.85
		C1251.412,1015.81,1238.502,1044.262,1214.068,1038.008z"/>
	<path display="inline" fill="#FFFFFF" d="M955.324,1446.136c120.904-3.347,243.469,19.917,362.748-18.28
		c-33.73,33.414-74.499,55.066-120.483,51.99c-80.983-5.42-161.515-17.659-242.235-27.045
		C955.342,1450.578,955.335,1448.355,955.324,1446.136z"/>
	<path display="inline" fill="#FFFFFF" d="M1087.307,1032.479c17.793,1.721,36.036,1.645,53.176,5.961
		c7.888,1.987,16.101,11.432,19.831,19.495c10.553,22.821,22.35,27.306,44.386,15.666c9.107-4.812,19.772-6.67,32.349-10.714
		c1.052,26.021-11.012,33.164-26.773,32.866c-15.876-0.301-27.001,3.213-37.546,16.457c-5.455,6.85-19.423,6.923-29.546,10.06
		c-1.516-3.188-3.032-6.377-4.552-9.563c6.706-7.961,13.411-15.919,20.117-23.88c-0.389-2.063-0.78-4.124-1.169-6.188
		c-20.564,3.773-41.128,7.55-61.691,11.322c-1.478-1.922-2.958-3.842-4.436-5.764c6.557-2.197,13.11-4.396,14.9-4.993
		c-10.534-18.18-18.441-31.831-26.35-45.481C1082.438,1035.975,1084.872,1034.227,1087.307,1032.479z"/>
	<path display="inline" fill="#FFFFFF" d="M397.416,992.928c-23.006-20.417-29.604-108.837-17.722-149.072
		c16.601-56.231,69.906-109.937,120.613-116.675c-37.086,33.248-87.98,56.359-96.914,111.325
		C395.454,887.366,379.083,935.946,397.416,992.928z"/>
	<path display="inline" fill="#FFFFFF" d="M848.465,1394.615c-29.288-16.143-55.847-39.375-62.671-71.637
		c-5.685-26.873-8.213-58.387,1.185-86.445c3.955-0.374,7.91-0.75,11.866-1.124c3.571,12.863,12.443,26.979,9.757,38.367
		c-9.639,40.829,10.707,69.029,34.204,97.128c4.628,5.531,8.325,11.841,12.452,17.791
		C852.993,1390.668,850.729,1392.643,848.465,1394.615z"/>
	<path display="inline" fill="#FFFFFF" d="M1058.615,1347.04c-20.533,27.582-155.805,49.957-194.644,30.78
		c3.45-6.673,5.438-16.945,10.693-19.049c6.587-2.638,18.877-1.53,23.44,3.121c18.591,18.952,38.428,13.155,59.731,7.81
		C991.042,1361.373,1024.636,1354.597,1058.615,1347.04z"/>
	<path display="inline" fill="#FFFFFF" d="M734.048,1350.058c-7.554-1.97-15.177-5.731-22.646-5.454
		c-9.348,0.349-20.692,1.352-27.464,6.735c-24.047,19.132-41.265,15.317-54.843-16.086c5.55-5.069,11.589-10.58,15.442-14.101
		c32.866,7.13,62.391,13.533,91.916,19.938C735.652,1344.082,734.852,1347.07,734.048,1350.058z"/>
	<path display="inline" fill="#FFFFFF" d="M382.325,624.015c7.287-58.021,51.331-91.063,84.903-131.51
		c2.714,1.876,5.426,3.75,8.139,5.625C444.355,540.091,413.34,582.052,382.325,624.015z"/>
	<path display="inline" fill="#FFFFFF" d="M382.901,771.333c-12.699-26.19,3.229-135.775,27.526-157.014
		C400.662,670.038,391.744,720.899,382.901,771.333z"/>
	<path display="inline" fill="#FFFFFF" d="M329.446,812.695c-23.627-51.202-12.022-94.201,16.409-141.916
		C339.985,721.545,334.914,765.411,329.446,812.695z"/>
	<path display="inline" fill="#FFFFFF" d="M439.652,1132.05c42.542,28.838,11.233,76.266,43.985,98.826
		c-18.938,18.626-27.888,9.38-30.623-4.746C447.439,1197.346,444.575,1168.033,439.652,1132.05z"/>
	<path display="inline" fill="#FFFFFF" d="M1279.452,839.876c-3.183,8.58-5.347,17.74-9.822,25.582
		c-4.801,8.416-11.774,15.591-17.917,23.453c-21.616-7.592-34.326-30.209-29.146-55.907c5.204,3.896,9.536,7.218,13.957,10.418
		c4.016,2.91,8.125,5.687,13.98,9.764c7.479-5.401,14.707-10.628,21.938-15.851C1274.78,838.182,1277.116,839.028,1279.452,839.876z
		"/>
	<path display="inline" fill="#FFFFFF" d="M1178.629,740.856c-5.907-15.571-11.816-31.142-17.725-46.712
		c2.086-1.347,4.172-2.695,6.258-4.044c17.637,16.076,35.275,32.149,52.912,48.226c-1.062,3.022-2.124,6.046-3.188,9.068
		c-12.886-2.301-25.772-4.602-38.656-6.904C1178.232,740.49,1178.629,740.856,1178.629,740.856z"/>
	<path display="inline" fill="#FFFFFF" d="M1327.82,880.698c-13.537,27.626-27.797,33.43-48.957,21.229
		C1286.913,875.349,1304.307,867.274,1327.82,880.698z"/>
	<path display="inline" fill="#FFFFFF" d="M795.585,1564.709c-10.019-14.104-20.039-28.206-30.058-42.309
		c1.734-3.006,3.47-6.013,5.208-9.018c10.017,2.538,24.602,1.938,28.993,8.337c6.875,10.013,6.854,24.76,9.755,37.498
		C804.852,1561.05,800.217,1562.878,795.585,1564.709z"/>
	<path display="inline" fill="#FFFFFF" d="M350.664,1123.589c-3.42,5.918-6.837,11.838-10.918,18.902
		c-24.37-28.585-4.43-79.118,32.757-86.87c-12.969,22.047-42.663,38.146-21.569,68.433
		C350.938,1124.059,350.664,1123.589,350.664,1123.589z"/>
	<path display="inline" fill="#FFFFFF" d="M1377.306,717.307c-24.444,6.024-35.61-14.219-29.851-56.947
		C1359.49,683.32,1368.158,699.86,1377.306,717.307z"/>
	<path display="inline" fill="#FFFFFF" d="M583.591,1217.51c6.289,17.219,12.575,34.436,18.864,51.649
		c-34.874-14.479-39.903-25.749-28.354-48.53C577.268,1219.589,580.429,1218.551,583.591,1217.51z"/>
	<path display="inline" fill="#FFFFFF" d="M1416.523,1329.98c-30.089,10.822-60.179,21.644-90.27,32.466
		c-1.054-2.638-2.108-5.273-3.162-7.91c29.553-11.646,59.104-23.289,88.66-34.934
		C1413.344,1323.064,1414.933,1326.521,1416.523,1329.98z"/>
	<path display="inline" fill="#FFFFFF" d="M1236.264,680.923c7.408,6.31,17.305,11.368,21.324,19.374
		c2.584,5.146-3.479,14.631-5.668,22.173c-3.113,0.124-6.228,0.25-9.342,0.374c-5.064-11.356-10.128-22.718-15.191-34.076
		C1230.347,686.151,1233.307,683.537,1236.264,680.923z"/>
	<path display="inline" d="M1005.063,544.25c21.713,17.298,39.498,31.464,57.974,46.184c13.215-9.076,25.585-17.575,41.94-28.813
		c3.156,12.773,5.257,21.271,7.06,28.567c-17.717,9.117-33.474,17.225-53.162,27.359c-21.188-8.797-43.563-6.1-64.214,14.254
		c-5.415,5.339-23.66,5.206-30.608,0.154c-32.245-23.446-62.588-49.502-91.974-78.186c31.765,9.359,66.563-14.535,96.287,17.167
		C985.016,588.697,998.516,570.328,1005.063,544.25z"/>
	<path display="inline" d="M1227.363,472.712c-26.056-27.959-11.034-75.448-51.548-92.153c27.7-4.562,32.604-0.238,37.998,24.301
		c2.713,12.354,9.37,24.862,17.36,34.791C1241.421,452.386,1241.891,461.511,1227.363,472.712z"/>
	<path display="inline" d="M1302.206,428.329c-11.36,6.819-22.721,13.641-33.142,19.896c-10.749-15.139-19.629-27.647-29.605-41.697
		c28.206-15.856,41.243,14.653,62.641,15.455C1302.135,424.098,1302.17,426.212,1302.206,428.329z"/>
	<path display="inline" d="M1325.934,605.757c-16.371-20.036,0.767-28.868,8.083-42.403
		C1353.171,584.451,1350.713,595.609,1325.934,605.757z"/>
</g>
<g id="Layer_4" opacity="0.1">
	<path fill="#E8A92C" d="M385.307,875.396c60.399-44.789,113.657-118.099,166.831-157.526c10.216,28.894,16.33,58.489,44.851,83.57
		C752.259,691.31,828.347,699.025,967.225,679.482c-56.221,88.733-122.731,134.171-206.938,150.838
		c-118.04,23.367-192.375,95.913-245.058,199.394c-26.823,52.665-33.819,100.949-6.561,156.14
		c23.001,46.576,2.878,84.07-49.629,74.888c-134.489-23.516-207.86,59.044-279.376,148.241
		c-21.791,27.177-40.221,57.056-68.89,98.188c-44.621-99.372-30.369-182.281,2.309-257.07
		c58.348-133.567,127.734-262.323,192.889-392.898c15.208-30.479,43.063-86.392,59.083-116.466
		C361.843,776.242,369.14,834.031,385.307,875.396z"/>
	<path fill="#E8A92C" d="M1009.285,134.064c226.426-52.683,391.856,16.699,482.121,186.242
		c40.938,76.903,37.086,151.274-4.35,223.919c-72.91,127.852-174.902,230.857-304.812,296.823
		c-129.904,65.954-268.205,115.438-403.056,171.571c-58.989,24.55-118.567,47.682-177.872,71.457c-9.779,0-16.005,0-20.034-12.553
		c3.25-22.992,21.49-73.624,45.882-89.571c62.307-40.729,130.728-73.739,199.968-101.793
		c80.832-32.749,173.15-40.646,222.955-129.756c9.607-17.186,44.191-25.026,68.508-28.619
		c176.666-26.034,312.375-276.048,231.166-432.377c-51.453-99.025-150.496-121.783-248.342-143.101
		C1077.209,141.026,1052.146,139.61,1009.285,134.064z"/>
	<path fill="#E8A92C" d="M1580.76,275.697c14.146,2.562,29.779,19.353,32.07,22.285c68.141,86.991,64.039,345.895-6.623,431.961
		c-180.467,219.82-411.807,363.603-686.17,426.735c-109.796,25.267-221.66,26.472-286.91,137.345
		c-59.244-67.697-34.434-145.849,53.699-181.523c74.809-30.272,155.652-45.881,229.847-77.346
		c141.168-59.864,286.447-114.781,417.318-193.01c180.237-107.723,255.563-282.478,253.075-491.106
		C1586.838,332.302,1584.654,299.436,1580.76,275.697z"/>
	<path fill="#E8A92C" d="M1706.111,677.717c29.33,91.813-2.185,169.759-52.881,234.575
		c-129.291,165.269-287.521,295.08-493.773,354.163c-84.066,24.086-170.551,39.723-254.768,63.372
		c-25.931,7.282-49.112,26.827-71.586,43.419c-56.613,41.799-80.218,41.271-137.303-9.039
		c9.426-73.766,56.147-109.901,126.719-124.812c109.452-23.107,223.676-34.753,326.741-74.778
		C1389.955,1071.143,1602.012,937.273,1706.111,677.717z"/>
	<path fill="#E8A92C" d="M174.61,1533.947c87.526-149.374,258.859-234.305,341.51-180.505c-3.258,10.878-5.632,23.349-10.601,34.688
		c-45.136,102.931-15.964,167.089,91.717,203.662c49.098,16.664,97.638,35.079,145.85,54.163
		c8.165,3.229,13.396,13.865,34.743,37.26C554.417,1679.561,398.65,1498.896,174.61,1533.947z"/>
	<path fill="#E8A92C" d="M868.477,1396.868c33.322-8.736,66.425-18.45,100.002-26.053c121.507-27.498,245.445-46.947,363.996-83.834
		c83.394-25.948,238.396-186.591,258.063-205.954c13.51,65.546-109.531,215.854-225.183,276.665
		c-155.774,81.894-313.502,168.03-491.888,72.8C863.955,1422.524,857.33,1409.683,868.477,1396.868z"/>
	<path fill="#E8A92C" d="M1071.133,1528.428c-96.268,112.831-430.841,57.688-487.231-81.688
		C757.542,1435.755,903.289,1551.789,1071.133,1528.428z"/>
</g>
</svg>
