<?xml version="1.0" encoding="utf-8"?>
<!-- Generator: Adobe Illustrator 16.0.0, SVG Export Plug-In . SVG Version: 6.00 Build 0)  -->
<!DOCTYPE svg PUBLIC "-//W3C//DTD SVG 1.1//EN" "http://www.w3.org/Graphics/SVG/1.1/DTD/svg11.dtd">
<!-- <svg version="1.1" id="Layer_1" xmlns="http://www.w3.org/2000/svg" xmlns:xlink="http://www.w3.org/1999/xlink" x="0px" y="0px"
	 width="1800px" height="1800px" viewBox="0 0 1800 1800" enable-background="new 0 0 1800 1800" xml:space="preserve">
	
<g id="Layer_4" opacity="0.1">
	<path fill="#E8A92C" d="M385.307,875.396c60.399-44.789,113.657-118.099,166.831-157.526c10.216,28.894,16.33,58.489,44.851,83.57
		i like turtles
		i like turtles
		i like turtles
		i like turtles
		i like turtles
		i like turtles
		i li
	<path fill="#E8A92C" d="M1009.285,134.064c226.426-52.683,391.856,16.699,482.121,186.242
		c40.938,76.903,37.086,151.274-4.35,223.919c-72.91,127.852-174.902,230.857-304.812,296.823
		c-129.904,65.954-268.205,115.438-403.056,171.571c-58.989,24.55-118.567,47.682-177.872,71.457c-9.779,0-16.005,0-20.034-12.553
		c3.25-22.992,21.49-73.624,45.882-89.571c62.307-40.729,130.728-73.739,199.968-101.793
		c80.832-32.749,173.15-40.646,222.955-129.756c9.607-17.186,44.191-25.026,68.508-28.619
		c176.666-26.034,312.375-276.048,231.166-432.377c-51.453-99.025-150.496-121.783-248.342-143.101
		C1077.209,141.026,1052.146,139.61,1009.285,134.064z"/>
</g>
</svg> -->


<svg version="1.1" id="Layer_2" xmlns="http://www.w3.org/2000/svg" xmlns:xlink="http://www.w3.org/1999/xlink" x="0px" y="0px"
	 width="1800px" height="1800px" viewBox="0 0 1800 1800" enable-background="new 0 0 1800 1800" xml:space="preserve">
<path opacity="0.2" fill="#0CAA4B" d="M553.143,533.988c73.66,5.672,157.479,25.835,228.908,58.688
	c58.262,26.792,84.999,14.46,118.81-31.951c54.559-74.872,114.735-145.725,173.987-217.083c23.93-28.816,59.282-48.64,84.696-10.921
	c11.488,17.048-0.492,57.962-13.313,81.899c-46.087,86.072-98.455,168.787-144.747,254.761c-7.038,13.066-1.181,43.58,9.979,54.338
	c124.478,119.981,227.359,255.71,301.954,411.532c20.944,43.755,44.077,53.082,84.919,30.442
	c40.454-22.421,82.873-41.423,122.524-65.1c45.053-26.894,76.086-16.712,105.095,25.487c34.896,50.771,0.085,69.97-35.768,88.957
	c-62.412,33.056-127.477,61.612-187.28,98.738c-16.081,9.979-28.085,46.788-23.155,66.605
	c15.859,63.813,42.184,124.943,61.024,188.139c9.465,31.767,37.567,72.154-18.319,91.196
	c-56.838,19.368-110.137-2.78-124.332-53.612c-20.367-72.953-34.411-147.713-55.598-220.405
	c-28.188-96.673-25.943-62.011-121.081-37.576c-40.677,11.201-105.672-5.133-137.948-19.455
	c-79.911-35.459-163.451-73.306-239.49-117.254c-74.377-42.979-76.404-42.308-111.134,33.8
	c-38.599,84.577-78.318,168.641-118.315,252.563c-16.55,34.728-35.378,69.355-82.723,39.681
	c-38.906-24.392-61.044-50.787-32.021-101.978c49.388-87.099,95.784-176.5,134.487-268.693
	c12.791-30.469,6.823-75.936-5.812-108.661c-42.887-111.031-95.14-218.443-138.312-329.371
	c-14.95-38.429-28.215-54.137-67.412-33.708c-54.154,28.218-107.885,57.651-163.853,81.812c-18.209,7.861-59.708,12.396-64.553,0.59
	c-5.176-25.924,5.085-54.252,19.565-64.47c43.319-30.558,90.839-57.193,140.132-76.782c74.252-29.504,135.943-58.44,123.606-159.181
	c-6.306-51.583,10.758-106.639,21.097-159.369c4.502-22.969,14.915-47.162,29.726-64.886c10.117-12.111,20.899-27.095,49.364-20.456
	c21.646,14.584,12.846,32.353,10.856,47.419c-7.009,53.182-18.207,105.8-26.986,158.774
	C445.674,535.44,472.517,535.489,553.143,533.988z M1134.094,1204.236c9.559,1.025,17.024-4.869,22.387-18.418
	c10.752-23.002-13.74-59.939-30.854-81.945c-62.314-80.146-129.089-156.826-194.16-234.833
	c-17.861-21.418-47.609-58.234-55.854-43.235c-10.045,18.274-19.909,30.847-32.424,51.878
	c-24.864,41.773-50.375,80.792-75.016,122.718c-21.854,37.173-8.662,59.525,27.545,73.537
	C908.442,1117.549,1021.292,1160.83,1134.094,1204.236z M773.686,751.411c-22.463-21.11-112.198-69.76-173.071-89.077
	c-71.173-22.581-101.503,11.854-73.282,79.145c27.607,65.811,67.303,126.556,110.518,205.685
	C693.05,872.997,727.515,813.45,773.686,751.411z"/>
</svg>
