<?xml version="1.0" encoding="utf-8"?>
<!-- Generator: Adobe Illustrator 16.0.0, SVG Export Plug-In . SVG Version: 6.00 Build 0)  -->
<!DOCTYPE svg PUBLIC "-//W3C//DTD SVG 1.1//EN" "http://www.w3.org/Graphics/SVG/1.1/DTD/svg11.dtd">
<svg version="1.1" id="Layer_2" xmlns="http://www.w3.org/2000/svg" xmlns:xlink="http://www.w3.org/1999/xlink" x="0px" y="0px"
	 width="1800px" height="1800px" viewBox="0 0 1800 1800" enable-background="new 0 0 1800 1800" xml:space="preserve">
<path fill-rule="evenodd" clip-rule="evenodd" fill="#CCCCCC" d="M553.142,533.988c73.661,5.672,157.479,25.835,228.909,58.688
	c58.262,26.792,84.999,14.46,118.809-31.951c54.559-74.872,114.736-145.725,173.988-217.084
	c23.929-28.816,59.282-48.64,84.696-10.921c11.488,17.048-0.492,57.962-13.313,81.899
	c-46.087,86.072-98.455,168.787-144.747,254.761c-7.038,13.066-1.18,43.58,9.979,54.338
	c124.477,119.981,227.359,255.71,301.954,411.532c20.944,43.755,44.077,53.082,84.919,30.442
	c40.454-22.42,82.873-41.423,122.524-65.099c45.053-26.894,76.086-16.712,105.095,25.487c34.896,50.771,0.085,69.97-35.768,88.957
	c-62.412,33.056-127.476,61.612-187.28,98.738c-16.081,9.979-28.085,46.788-23.155,66.606
	c15.859,63.813,42.184,124.943,61.024,188.138c9.465,31.767,37.568,72.155-18.319,91.197
	c-56.838,19.368-110.137-2.781-124.332-53.612c-20.367-72.954-34.411-147.713-55.598-220.406
	c-28.187-96.673-25.943-62.01-121.081-37.576c-40.677,11.201-105.672-5.133-137.948-19.455
	c-79.911-35.459-163.451-73.306-239.49-117.254c-74.377-42.979-76.405-42.307-111.134,33.8
	c-38.599,84.577-78.318,168.64-118.315,252.562c-16.55,34.728-35.378,69.356-82.723,39.681
	c-38.906-24.392-61.044-50.787-32.022-101.978c49.388-87.098,95.785-176.5,134.488-268.693
	c12.791-30.469,6.823-75.935-5.812-108.661c-42.887-111.031-95.139-218.443-138.311-329.371
	c-14.95-38.429-28.215-54.137-67.412-33.708c-54.154,28.218-107.885,57.651-163.853,81.811c-18.209,7.862-59.708,12.397-64.553,0.59
	c-5.176-25.924,5.085-54.252,19.565-64.47c43.319-30.557,90.839-57.193,140.132-76.782c74.253-29.504,135.943-58.44,123.606-159.18
	c-6.306-51.583,10.758-106.639,21.097-159.369c4.502-22.969,14.915-47.162,29.725-64.886c10.118-12.111,20.9-27.095,49.365-20.456
	c21.645,14.584,12.845,32.353,10.856,47.419c-7.009,53.182-18.207,105.8-26.986,158.774
	C445.674,535.44,472.517,535.489,553.142,533.988z M1134.094,1204.236c9.558,1.026,17.024-4.869,22.387-18.418
	c10.751-23.002-13.741-59.939-30.854-81.945c-62.315-80.146-129.089-156.826-194.16-234.833
	c-17.861-21.418-47.61-58.234-55.854-43.235c-10.044,18.274-19.909,30.846-32.423,51.878
	c-24.865,41.773-50.376,80.792-75.016,122.717c-21.855,37.173-8.662,59.526,27.545,73.538
	C908.442,1117.549,1021.292,1160.83,1134.094,1204.236z M773.686,751.411c-22.463-21.11-112.199-69.76-173.072-89.077
	c-71.172-22.581-101.503,11.853-73.282,79.145c27.608,65.81,67.303,126.555,110.518,205.684
	C693.05,872.997,727.515,813.45,773.686,751.411z"/>
</svg>
