<?xml version="1.0" encoding="utf-8"?>
<!-- Generator: Adobe Illustrator 16.0.0, SVG Export Plug-In . SVG Version: 6.00 Build 0)  -->
<!DOCTYPE svg PUBLIC "-//W3C//DTD SVG 1.1//EN" "http://www.w3.org/Graphics/SVG/1.1/DTD/svg11.dtd">
<svg version="1.1" xmlns="http://www.w3.org/2000/svg" xmlns:xlink="http://www.w3.org/1999/xlink" x="0px" y="0px"
	 width="255.96px" height="151.122px" viewBox="59.661 -0.201 255.96 151.122"
	 enable-background="new 59.661 -0.201 255.96 151.122" xml:space="preserve">
<g id="Layer_2">
</g>
<g id="Layer_1">
	<rect x="59.661" y="-0.201" fill="none" width="255.96" height="151.122"/>
	<polygon fill="none" points="153.631,96.72 153.567,96.72 135.339,96.72 135.339,127.235 153.604,127.235 	"/>
	<path fill="none" d="M135.339,142.766v8.155v16.468c0,0,0,9.633,9.112,9.633c9.113,0,9.116-8.75,9.116-8.75l0.016-17.351
		l0.007-8.155H135.339z"/>
	<rect x="101.589" y="96.72" fill="none" width="18.228" height="30.515"/>
	<path fill="#333333" d="M101.589,142.766h18.228v11.401h15.522v-11.401h18.251l0.041,11.401h16.3v-11.288v-15.756v-24.214v-0.295
		c0-13.783,17.71-19.59,17.71-19.59v-1.956V79.48V75.36H68.359v4.121v1.587v1.956c0,0,17.707,5.807,17.707,19.589v0.296v24.213
		v15.757v11.288h15.522V142.766z M135.339,96.72h18.229h0.063l-0.027,30.515h-18.265V96.72z M101.589,96.72h18.228v30.515h-18.228
		V96.72z"/>
	<path fill="none" d="M144.451,25.899c9.113,0,9.116-8.75,9.116-8.75L153.582,0l0.008-8.356h-18.251V0v16.267
		C135.339,16.267,135.339,25.899,144.451,25.899z"/>
	<path fill="none" d="M110.701,25.899c9.111,0,9.115-8.75,9.115-8.75V0v-8.356h-18.228V0v16.267
		C101.589,16.267,101.589,25.899,110.701,25.899z"/>
	<polygon fill="none" points="153.631,-54.402 153.567,-54.402 135.339,-54.402 135.339,-23.887 153.604,-23.887 	"/>
	<path fill="#333333" d="M153.567,17.149c0,0-0.003,8.75-9.116,8.75c-9.112,0-9.112-9.632-9.112-9.632V-0.625h-15.522v17.774
		c0,0-0.004,8.75-9.115,8.75c-9.112,0-9.112-9.632-9.112-9.632V-0.625H86.066v16.593v0.298c0,13.781-17.707,19.589-17.707,19.589
		v2.305v1.238v4.119h119.281v-4.119v-1.238v-2.305c0,0-17.71-5.808-17.71-19.588v-0.299V-0.625h-16.349L153.567,17.149z"/>
	<polygon fill="none" points="281.611,21.159 281.547,21.159 263.318,21.159 263.318,51.674 281.584,51.674 	"/>
	<path fill="none" d="M272.432,101.459c9.112,0,9.115-8.749,9.115-8.749l0.023-25.506h-18.252v24.624
		C263.318,91.828,263.318,101.459,272.432,101.459z"/>
	<rect x="229.568" y="21.159" fill="none" width="18.228" height="30.515"/>
	<path fill="none" d="M238.682,101.459c9.111,0,9.114-8.749,9.114-8.749V67.204h-18.228v24.624
		C229.568,91.828,229.568,101.459,238.682,101.459z"/>
	<path fill="#333333" d="M196.339,3.919v1.587v1.956c0,0,17.708,5.806,17.708,19.589v0.295v24.213v15.756v24.212v0.298
		c0,13.781-17.708,19.589-17.708,19.589v2.305v1.239v4.119H315.62v-4.119v-1.239v-2.305c0,0-17.709-5.808-17.709-19.588v-0.299
		V67.318V51.561V27.348v-0.296c0-13.783,17.709-19.589,17.709-19.589V5.507V3.919v-4.12H196.339V3.919z M263.318,21.159h18.229
		h0.064l-0.027,30.515h-18.266V21.159z M263.318,67.204h18.252l-0.023,25.506c0,0-0.003,8.749-9.115,8.749
		c-9.113,0-9.113-9.632-9.113-9.632V67.204z M229.568,21.159h18.228v30.515h-18.228V21.159z M229.568,67.204h18.228V92.71
		c0,0-0.003,8.749-9.114,8.749c-9.113,0-9.113-9.632-9.113-9.632V67.204z"/>
</g>
</svg>
