<?xml version="1.0" encoding="utf-8"?>
<!-- Generator: Adobe Illustrator 16.0.0, SVG Export Plug-In . SVG Version: 6.00 Build 0)  -->
<!DOCTYPE svg PUBLIC "-//W3C//DTD SVG 1.1//EN" "http://www.w3.org/Graphics/SVG/1.1/DTD/svg11.dtd">
<svg version="1.1" xmlns="http://www.w3.org/2000/svg" xmlns:xlink="http://www.w3.org/1999/xlink" x="0px" y="0px"
	 width="656.869px" height="656.87px" viewBox="0 0 656.869 656.87" enable-background="new 0 0 656.869 656.87"
	 xml:space="preserve">
<g id="Layer_2">
	<rect fill="#CCCCCC" width="656.869" height="656.87"/>
</g>
<g id="Layer_1">
	<polygon fill="none" points="608.479,380.655 656.869,429.044 656.869,338.164 653.919,335.213 	"/>
	<polygon fill="none" points="249.085,0 227.825,0 238.455,10.63 	"/>
	<path fill="none" d="M0,524.05v28.146C1.241,543.488,1.598,533.792,0,524.05z"/>
	<path fill="none" d="M433.467,37.365c0,0,25.798,25.799,48.512,3.085C497.86,24.567,491.194,8.334,485.742,0h-89.641l14.529,14.529
		L433.467,37.365z"/>
	
		<rect x="495.003" y="245.025" transform="matrix(0.7071 0.7071 -0.7071 0.7071 357.1984 -308.0311)" fill="none" width="110.838" height="64.264"/>
	<path fill="none" d="M69.407,453.02c22.716-22.715-0.71-46.16-0.71-46.16l-25.198-25.199L0,338.164v90.881l20.894,20.894
		C20.894,449.938,46.691,475.735,69.407,453.02z"/>
	<path fill="none" d="M81.19,251.072l-45.443,45.443l46.449,46.448l22.836,22.836c0,0,25.798,25.799,48.512,3.084
		c22.721-22.721-0.706-46.164-0.706-46.164L81.19,251.072z"/>
	<polygon fill="none" points="0,169.565 0,249.085 39.76,209.325 	"/>
	<path fill="none" d="M397.842,124.585c22.716-22.715-0.71-46.159-0.71-46.159l-25.198-25.199L325.484,6.778l-45.44,45.442
		l69.284,69.284C349.328,121.504,375.126,147.302,397.842,124.585z"/>
	
		<rect x="250.787" y="489.127" transform="matrix(-0.7071 -0.7071 0.7071 -0.7071 154.0603 1106.5591)" fill="none" width="110.839" height="64.492"/>
	<path fill="none" d="M409.625,579.506l-45.443,45.443l31.919,31.92h89.643c-2.348-3.589-4.471-5.715-4.471-5.715L409.625,579.506z"
		/>
	<path fill="none" d="M656.869,70.7V42.529C655.626,51.244,655.268,60.949,656.869,70.7z"/>
	<polygon fill="none" points="205.521,543.684 160.08,589.125 227.826,656.87 249.084,656.87 283.896,622.059 	"/>
	<polygon fill="none" points="572.652,176.553 651.027,254.927 656.869,249.085 656.869,169.565 618.255,130.95 	"/>
	<g>
		<path fill="#FFFFFF" d="M105.032,365.799c0,0,25.798,25.799,48.512,3.084c22.721-22.721-0.706-46.164-0.706-46.164L81.19,251.072
			l-45.443,45.443l46.449,46.448L105.032,365.799z"/>
		<polygon fill="#FFFFFF" points="205.521,543.684 160.08,589.125 227.826,656.87 249.084,656.87 283.896,622.059 		"/>
		<path fill="#FFFFFF" d="M0,524.05v28.146C1.241,543.488,1.598,533.792,0,524.05z"/>
		<path fill="#FFFFFF" d="M69.407,453.02c22.716-22.715-0.71-46.16-0.71-46.16l-25.198-25.199L0,338.164v90.881l20.894,20.894
			C20.894,449.938,46.691,475.735,69.407,453.02z"/>
		<path fill="#FFFFFF" d="M433.467,37.365c0,0,25.798,25.799,48.512,3.085C497.86,24.567,491.194,8.334,485.742,0h-89.641
			l14.529,14.529L433.467,37.365z"/>
		<polygon fill="#FFFFFF" points="0,169.565 0,249.085 39.76,209.325 		"/>
		<polygon fill="#FFFFFF" points="249.085,0 227.825,0 238.455,10.63 		"/>
		<path fill="#FFFFFF" d="M397.842,124.585c22.716-22.715-0.71-46.159-0.71-46.159l-25.198-25.199L325.484,6.778l-45.44,45.442
			l69.284,69.284C349.328,121.504,375.126,147.302,397.842,124.585z"/>
		<polygon fill="#FFFFFF" points="572.652,176.553 651.027,254.927 656.869,249.085 656.869,169.565 618.255,130.95 		"/>
		
			<rect x="250.787" y="489.127" transform="matrix(0.7071 0.7071 -0.7071 0.7071 458.3445 -63.8158)" fill="#FFFFFF" width="110.838" height="64.49"/>
		<path fill="#FFFFFF" d="M594.724,0L328.435,266.288l-9.484-9.484c0,0,28.587-59.699-8.318-96.604l-0.796-0.797l-64.842-64.841
			L202.8,52.367L150.432,0H0l9.49,9.489c0,0-6.803,14.208-9.49,33.043v28.164c2.033,12.378,7.224,24.826,17.801,35.402l0.792,0.792
			l64.842,64.843l42.195,42.195l64.841,64.84l0.796,0.797c36.905,36.904,96.61,8.312,96.61,8.312l9.485,9.484L0,594.723v62.146
			h150.433l-12.475-12.475l-0.791-0.793c-36.912-36.91-96.604-8.316-96.604-8.316l-9.49-9.488l297.361-297.363l9.49,9.49
			c0,0-28.6,59.699,8.311,96.609l0.792,0.793l64.843,64.842l42.194,42.195l64.841,64.84l0.796,0.797
			c36.905,36.904,96.61,8.311,96.61,8.311l9.484,9.486l-31.072,31.072h62.146v-62.146l-9.484-9.484c0,0,6.8-14.207,9.484-33.042
			v-28.146c-2.031-12.383-7.223-24.836-17.803-35.416l-0.796-0.797l-64.842-64.84l-42.193-42.197l-64.844-64.84l-0.791-0.793
			c-36.911-36.91-96.604-8.316-96.604-8.316l-9.489-9.49L656.869,0v0H594.724z"/>
		<path fill="#FFFFFF" d="M656.869,70.7V42.529C655.626,51.244,655.268,60.949,656.869,70.7z"/>
		
			<rect x="495.003" y="245.026" transform="matrix(-0.7071 -0.7071 0.7071 -0.7071 743.6518 862.3438)" fill="#FFFFFF" width="110.839" height="64.263"/>
		<path fill="#FFFFFF" d="M409.625,579.506l-45.443,45.443l31.919,31.92h89.643c-2.348-3.589-4.471-5.715-4.471-5.715
			L409.625,579.506z"/>
		<polygon fill="#FFFFFF" points="608.479,380.655 656.869,429.044 656.869,338.164 653.919,335.213 		"/>
	</g>
</g>
</svg>
