<?xml version="1.0" encoding="utf-8"?>
<!-- Generator: Adobe Illustrator 16.0.0, SVG Export Plug-In . SVG Version: 6.00 Build 0)  -->
<!DOCTYPE svg PUBLIC "-//W3C//DTD SVG 1.1//EN" "http://www.w3.org/Graphics/SVG/1.1/DTD/svg11.dtd">
<svg version="1.1" id="Layer_1" xmlns="http://www.w3.org/2000/svg" xmlns:xlink="http://www.w3.org/1999/xlink" x="0px" y="0px"
	 width="1800px" height="1800px" viewBox="0 0 1800 1800" enable-background="new 0 0 1800 1800" xml:space="preserve">
<path fill-rule="evenodd" clip-rule="evenodd" fill="#CCCCCC" d="M1386.741,331.499L1386.741,331.499
	c49.167-9.168,97.339-18.153,152.317-28.404c-117.805,487.691-159.709,978.659-295.363,1454.015
	C866.924,1479.761,489.644,1202.03,104.729,918.68C471.482,682.59,956.515,440.394,1386.741,331.499z M1366.524,487.828
	c-62.704,3.315-149.423,21.59-222.746,47.038c-73.323,25.449-798.746,335.079-872.688,392.438
	c280.318,181.24,560.678,362.495,838.205,541.924c31.323-145.81,63.894-297.427,100.034-465.67
	c-74.027-45.818-213.291-167.833-213.291-167.833S784.742,935.593,699.543,963.67c-0.417,11.478,163.452,104.112,232.945,147.604
	c22.729-37.573,43.701-133.925,43.701-133.925s35.446-5.11,68.777-5.861c-7.75,92.285-14.978,178.427-22.211,264.568l-3.813,26.455
	l-23.663-13.918c-138.597-94.182-306.554-202.952-461.158-308.01c59.645-38.005,318.463-155.445,400.17-193.672
	c25.328-11.849,74.39-34.631,74.39-34.631s61.934,46.884,84.114,67.392c0,0,87.754,68.564,150.468,106.553
	C1288.563,754.805,1322.064,616.797,1366.524,487.828z"/>
</svg>
