<?xml version="1.0" encoding="utf-8"?>
<!-- Generator: Adobe Illustrator 16.0.0, SVG Export Plug-In . SVG Version: 6.00 Build 0)  -->
<!DOCTYPE svg PUBLIC "-//W3C//DTD SVG 1.1//EN" "http://www.w3.org/Graphics/SVG/1.1/DTD/svg11.dtd">
<!-- <svg version="1.1" id="Layer_1" xmlns="http://www.w3.org/2000/svg" xmlns:xlink="http://www.w3.org/1999/xlink" x="0px" y="0px"
	 width="1800px" height="1800px" viewBox="0 0 1800 1800" enable-background="new 0 0 1800 1800" xml:space="preserve">
<g id="Layer_4" opacity="0.1">
	<path fill="#E8A92C" d="M1009.285,134.064c226.426-52.683,391.856,16.699,482.121,186.242
		c40.938,76.903,37.086,151.274-4.35,223.919c-72.91,127.852-174.902,230.857-304.812,296.823
		c-129.904,65.954-268.205,115.438-403.056,171.571c-58.989,24.55-118.567,47.682-177.872,71.457c-9.779,0-16.005,0-20.034-12.553
		c3.25-22.992,21.49-73.624,45.882-89.571c62.307-40.729,130.728-73.739,199.968-101.793
		c80.832-32.749,173.15-40.646,222.955-129.756c9.607-17.186,44.191-25.026,68.508-28.619
		c176.666-26.034,312.375-276.048,231.166-432.377c-51.453-99.025-150.496-121.783-248.342-143.101
		C1077.209,141.026,1052.146,139.61,1009.285,134.064z"/>
	<path fill="#E8A92C" d="M1580.76,275.697c14.146,2.562,29.779,19.353,32.07,22.285c68.141,86.991,64.039,345.895-6.623,431.961
		c-180.467,219.82-411.807,363.603-686.17,426.735c-109.796,25.267-221.66,26.472-286.91,137.345
		c-59.244-67.697-34.434-145.849,53.699-181.523c74.809-30.272,155.652-45.881,229.847-77.346
		c141.168-59.864,286.447-114.781,417.318-193.01c180.237-107.723,255.563-282.478,253.075-491.106
		C1586.838,332.302,1584.654,299.436,1580.76,275.697z"/>
	<path fill="#E8A92C" d="M1706.111,677.717c29.33,91.813-2.185,169.759-52.881,234.575
		c-129.291,165.269-287.521,295.08-493.773,354.163c-84.066,24.086-170.551,39.723-254.768,63.372
		c-25.931,7.282-49.112,26.827-71.586,43.419c-56.613,41.799-80.218,41.271-137.303-9.039
		c9.426-73.766,56.147-109.901,126.719-124.812c109.452-23.107,223.676-34.753,326.741-74.778
		C1389.955,1071.143,1602.012,937.273,1706.111,677.717z"/>
	<path fill="#E8A92C" d="M174.61,1533.947c87.526-149.374,258.859-234.305,341.51-180.505c-3.258,10.878-5.632,23.349-10.601,34.688
		c-45.136,102.931-15.964,167.089,91.717,203.662c49.098,16.664,97.638,35.079,145.85,54.163
		c8.165,3.229,13.396,13.865,34.743,37.26C554.417,1679.561,398.65,1498.896,174.61,1533.947z"/>
	<path fill="#E8A92C" d="M868.477,1396.868c33.322-8.736,66.425-18.45,100.002-26.053c121.507-27.498,245.445-46.947,363.996-83.834
		c83.394-25.948,238.396-186.591,258.063-205.954c13.51,65.546-109.531,215.854-225.183,276.665
		c-155.774,81.894-313.502,168.03-491.888,72.8C863.955,1422.524,857.33,1409.683,868.477,1396.868z"/>
	<path fill="#E8A92C" d="M1071.133,1528.428c-96.268,112.831-430.841,57.688-487.231-81.688
		C757.542,1435.755,903.289,1551.789,1071.133,1528.428z"/>
</g>
</svg> -->

<svg version="1.1" id="Layer_1" xmlns="http://www.w3.org/2000/svg" xmlns:xlink="http://www.w3.org/1999/xlink" x="0px" y="0px"
	 width="1800px" height="1800px" viewBox="0 0 1800 1800" enable-background="new 0 0 1800 1800" xml:space="preserve">
<path opacity="0.2" fill="#E12829" d="M1386.741,331.499L1386.741,331.499c49.167-9.168,97.339-18.153,152.317-28.404
	c-117.806,487.691-159.71,978.659-295.363,1454.016c-376.771-277.35-754.051-555.08-1138.966-838.431
	C471.482,682.59,956.515,440.395,1386.741,331.499z M1366.524,487.828c-62.704,3.314-149.423,21.59-222.746,47.038
	c-73.323,25.449-798.746,335.079-872.688,392.438c280.318,181.24,560.678,362.495,838.205,541.925
	c31.323-145.811,63.895-297.428,100.034-465.671c-74.027-45.817-213.291-167.833-213.291-167.833S784.742,935.593,699.543,963.67
	c-0.417,11.479,163.452,104.112,232.945,147.604c22.729-37.572,43.701-133.925,43.701-133.925s35.445-5.109,68.776-5.86
	c-7.75,92.285-14.978,178.427-22.211,264.567l-3.813,26.455l-23.663-13.918c-138.598-94.182-306.555-202.952-461.158-308.01
	c59.645-38.005,318.463-155.445,400.17-193.672c25.328-11.85,74.391-34.631,74.391-34.631s61.934,46.884,84.113,67.392
	c0,0,87.754,68.564,150.469,106.553C1288.563,754.805,1322.064,616.797,1366.524,487.828z"/>
</svg>