<?xml version="1.0" encoding="utf-8"?>
<!-- Generator: Adobe Illustrator 16.0.0, SVG Export Plug-In . SVG Version: 6.00 Build 0)  -->
<!DOCTYPE svg PUBLIC "-//W3C//DTD SVG 1.1//EN" "http://www.w3.org/Graphics/SVG/1.1/DTD/svg11.dtd">
<svg version="1.1" id="Layer_1" xmlns="http://www.w3.org/2000/svg" xmlns:xlink="http://www.w3.org/1999/xlink" x="0px" y="0px"
	 width="64px" height="64px" viewBox="0 0 64 64" enable-background="new 0 0 64 64" xml:space="preserve">
<g id="Layer_4" display="none">
	<rect display="inline" width="64" height="64"/>
</g>
<g id="Layer_3_1_">
	<ellipse fill="#CCCCCC" cx="31.63" cy="31.915" rx="17.119" ry="16.473"/>
</g>
<g id="Layer_2_1_">
	<g>
		<g>
			<path fill="#0CAA4B" stroke="#0CAA4B" stroke-miterlimit="10" d="M18.209,45.572L18.209,45.572L18.209,45.572z"/>
			<path fill="#0CAA4B" stroke="#0CAA4B" stroke-miterlimit="10" d="M17.816,42.982l0.394,2.59l2.582,0.43l0.228,4.734l3.128-3.082
				c4.839,2.424,10.567,2.467,15.44,0.119l3.1,3.143l0.301-4.727l2.59-0.394l0.434-2.582l4.729-0.228l-3.097-3.145
				c2.424-4.838,2.471-10.566,0.125-15.44l3.142-3.093l-4.729-0.303l-0.392-2.588l-2.58-0.433l-0.228-4.732l-3.14,3.092
				c-4.841-2.431-10.575-2.477-15.454-0.126l-3.087-3.135l-0.301,4.727l-2.589,0.394l-0.431,2.581l-4.734,0.229l3.086,3.135
				c-2.427,4.841-2.471,10.577-0.118,15.454l-3.125,3.074L17.816,42.982z M21.988,21.84c5.61-5.521,14.635-5.449,20.157,0.16
				c5.521,5.61,5.451,14.631-0.16,20.155c-5.607,5.521-14.631,5.448-20.151-0.16C16.31,36.385,16.379,27.362,21.988,21.84z"/>
			<polygon fill="#0CAA4B" stroke="#0CAA4B" stroke-miterlimit="10" points="18.412,18.206 18.412,18.206 18.413,18.205 			"/>
			<path fill="#0CAA4B" stroke="#0CAA4B" stroke-miterlimit="10" d="M45.574,45.799L45.574,45.799L45.574,45.799z"/>
			<polygon fill="#0CAA4B" stroke="#0CAA4B" stroke-miterlimit="10" points="45.789,18.421 45.789,18.421 45.792,18.42 			"/>
		</g>
	</g>
</g>
</svg>
