<?xml version="1.0" encoding="utf-8"?>
<!-- Generator: Adobe Illustrator 16.0.0, SVG Export Plug-In . SVG Version: 6.00 Build 0)  -->
<!DOCTYPE svg PUBLIC "-//W3C//DTD SVG 1.1//EN" "http://www.w3.org/Graphics/SVG/1.1/DTD/svg11.dtd">
<svg version="1.1" id="Layer_1" xmlns="http://www.w3.org/2000/svg" xmlns:xlink="http://www.w3.org/1999/xlink" x="0px" y="0px"
	 width="64px" height="64px" viewBox="0 0 64 64" enable-background="new 0 0 64 64" xml:space="preserve">
<g id="Layer_3_1_">
	<ellipse fill="#CCCCCC" cx="31.63" cy="31.915" rx="17.118" ry="16.474"/>
</g>
<g id="Layer_2_1_">
	<g>
		<g>
			<path fill="#E55C25" stroke="#E55C25" stroke-miterlimit="10" d="M18.209,45.572L18.209,45.572L18.209,45.572z"/>
			<path fill="#E55C25" stroke="#E55C25" stroke-miterlimit="10" d="M17.815,42.982l0.394,2.59l2.582,0.43l0.228,4.734l3.128-3.082
				c4.839,2.424,10.566,2.467,15.439,0.119l3.1,3.143l0.301-4.727l2.59-0.393l0.432-2.582l4.73-0.227l-3.096-3.145
				c2.424-4.838,2.471-10.566,0.125-15.44l3.141-3.093l-4.729-0.303l-0.391-2.588l-2.58-0.433l-0.227-4.732l-3.141,3.092
				c-4.84-2.431-10.575-2.477-15.453-0.126l-3.087-3.135l-0.301,4.727l-2.589,0.394l-0.431,2.581l-4.734,0.229l3.086,3.135
				c-2.427,4.841-2.471,10.578-0.118,15.455l-3.125,3.074L17.815,42.982z M21.987,21.839c5.61-5.521,14.636-5.449,20.155,0.16
				c5.523,5.61,5.451,14.632-0.158,20.155c-5.609,5.521-14.632,5.449-20.153-0.16C16.31,36.385,16.379,27.362,21.987,21.839z"/>
			<polygon fill="#E55C25" stroke="#E55C25" stroke-miterlimit="10" points="18.412,18.205 18.412,18.205 18.413,18.205 			"/>
			<path fill="#E55C25" stroke="#E55C25" stroke-miterlimit="10" d="M45.574,45.799L45.574,45.799L45.574,45.799z"/>
			<polygon fill="#E55C25" stroke="#E55C25" stroke-miterlimit="10" points="45.789,18.421 45.789,18.421 45.791,18.419 			"/>
		</g>
	</g>
</g>
</svg>
