<?xml version="1.0" encoding="utf-8"?>
<!-- Generator: Adobe Illustrator 16.0.0, SVG Export Plug-In . SVG Version: 6.00 Build 0)  -->
<!DOCTYPE svg PUBLIC "-//W3C//DTD SVG 1.1//EN" "http://www.w3.org/Graphics/SVG/1.1/DTD/svg11.dtd">
<svg version="1.1" id="Layer_3" xmlns="http://www.w3.org/2000/svg" xmlns:xlink="http://www.w3.org/1999/xlink" x="0px" y="0px"
	 width="1800px" height="1800px" viewBox="0 0 1800 1800" enable-background="new 0 0 1800 1800" xml:space="preserve">
<path opacity="0.2" fill-rule="evenodd" clip-rule="evenodd" fill="#CCCCCC" d="M1657.315,770.609
	c-25.982-2.435-190.811,5.683-190.811,5.683s-113.678-265.506-207.866-345.891c0,0,110.43-87.688,110.43-107.175
	c0-19.488-52.615-63.333-70.56-43.846c-17.946,19.487-90.007,108.805-90.007,108.805s-198.322-95-345.291-107.18
	c0,0,3.654-155.895-12.788-169.697c-16.442-13.803-70.031-25.17-71.656,13.804s-3.249,140.47-3.249,140.47l-380.001,230.77
	c0,0-73.076-74.059-94.188-70c-21.112,4.059-60.898,50.136-49.531,63.229c11.367,13.092,88.505,78.86,88.505,78.86
	s-74.703,189.185-112.864,438.459c0,0,1.624,12.177-9.744,20.298c-11.367,8.121-91.753,43.846-93.376,63.333
	c-1.624,19.487,5.682,52.781,17.051,54.403c11.368,1.623,97.437-43.846,97.437-43.846s160.77,330.136,174.574,353.035
	c13.803,22.897-47.095,79.733-54.403,114.646c-7.307,34.916,31.667,44.661,43.847,43.037c12.18-1.626,68.206-89.317,68.206-89.317
	l454.702,60.883c0,0-8.118,160.772,21.112,162.395c29.229,1.623,97.434,4.871,102.305-9.745
	c4.873-14.613-31.666-152.649-39.784-167.266c0,0,314.232-223.291,338.592-228.162c0,0,63.333,71.451,102.306,73.077
	c38.976,1.624,47.907-19.485,41.41-38.161c-6.495-18.679-101.495-99.873-101.495-99.873s73.079-396.249,71.454-410.855
	c-1.625-14.604,182.693-10.538,195.683-27.589C1670.307,820.14,1683.301,773.044,1657.315,770.609z M1145.776,440.935
	c-7.307-0.61-194.872,213.141-194.872,213.141c-21.922-17.052-75.513-18.269-75.513-18.269l-24.968-297.181
	C1015.455,360.549,1145.776,440.935,1145.776,440.935z M788.308,342.28l14.006,303.234c-52.98,10.318-101.998,71.709-101.998,71.709
	c-24.968-5.48-234.765-169.109-234.765-169.109C503.308,476.255,788.308,342.28,788.308,342.28z M403.639,605.776
	c21.924,20.297,249.893,173.838,249.893,173.838c-24.586,31.515-27.806,102.884-27.806,102.884
	c-21.112,6.495-329.267,117.894-329.267,117.894C298.083,874.537,403.639,605.776,403.639,605.776z M468.597,1386.07
	c0,0-150.214-272.011-172.137-301.242c0,0,320.123-125.42,342.65-139.656c0,0,22.736,65.777,36.539,74.699
	C675.648,1019.871,480.776,1353.591,468.597,1386.07z M895.013,1484.721l-377.699-65.77c0,0,214.369-326.543,218.014-337.375
	c10.961,10.152,98.045,42.63,122.404,35.93C859.963,1128.662,898.059,1435.391,895.013,1484.721z M833.372,1043.212
	c-21.314-4.871-151.636-42.819-146.154-160.162c11.57-71.858,60.289-110.224,60.289-110.224s52.981-57.245,107.179-60.289
	c54.199-3.044,177.822,70.641,135.193,198.528C947.251,1038.947,854.686,1048.082,833.372,1043.212z M995.969,1453.054
	c-6.09,21.922-43.44-299.626-60.898-350.771v-4.871c0,0,35.321-25.577,43.847-31.667c0,0,282.565,176.604,298.397,219.229
	C1277.314,1284.973,1002.059,1431.13,995.969,1453.054z M1312.637,1215.551c0,0-221.669-191.218-239.938-202.179
	s-28.417-23.015-28.417-23.015c14.617-20.705,38.637-110.005,38.637-110.005l299.14-15.572
	C1390.585,902.539,1312.637,1215.551,1312.637,1215.551z M1084.879,801.448c-2.436-35.32-57.242-92.566-57.242-92.566
	s146.153-205.833,179.037-219.23c10.962-3.653,116.925,131.539,182.693,300.835C1319.943,794.139,1105.584,797.793,1084.879,801.448
	z"/>
</svg>
